<svg xmlns="http://www.w3.org/2000/svg" version="1.1" xmlns:xlink="http://www.w3.org/1999/xlink" xmlns:svgjs="http://svgjs.com/svgjs" width="512" height="512" x="0" y="0" viewBox="0 0 480.04 480.04" style="enable-background:new 0 0 512 512" xml:space="preserve" class=""><g>
<g>
	<g>
		<path d="M372.055,376.597c-4.543-7.163-11.744-12.23-20.021-14.086h0.016c-8.325-1.893-17.061-0.356-24.24,4.264l-27.72,18.24
			c-0.789-2.796-1.96-5.469-3.48-7.944c-9.461-14.922-29.227-19.352-44.152-9.896l-29.872,18.928l-35.128-18.6
			c-23.596-12.488-52.073-11.377-74.624,2.912L65.25,400.567c-3.731,2.377-4.829,7.329-2.452,11.06
			c2.377,3.731,7.329,4.829,11.06,2.452l47.576-30.152c17.702-11.214,40.056-12.084,58.576-2.28l39.2,20.8
			c2.531,1.334,5.581,1.215,8-0.312l33.792-21.416c7.465-4.732,17.352-2.517,22.084,4.948s2.517,17.352-4.948,22.084l-27.016,17.088
			c-3.733,2.364-4.844,7.307-2.48,11.04c2.364,3.733,7.307,4.844,11.04,2.48l27.032-17.136c6.151-3.931,10.754-9.865,13.032-16.8
			l36.744-24.184c7.645-4.432,17.435-1.827,21.867,5.818c4.184,7.217,2.121,16.436-4.739,21.182l-56,35.472
			c-38.749,24.567-87.216,28.134-129.144,9.504l-34.4-15.28c-2.444-1.086-5.269-0.879-7.528,0.552l-27.032,17.128
			c-3.733,2.364-4.844,7.307-2.48,11.04s7.307,4.844,11.04,2.48l23.384-14.832l30.496,13.552
			c46.825,20.789,100.94,16.805,144.216-10.616l56-35.48C377.095,411.294,381.52,391.522,372.055,376.597z" fill="#ffffff" data-original="#000000"></path>
	</g>
</g>
<g>
	<g>
		<path d="M454.942,214.387c-0.849-16.968-14.831-30.303-31.82-30.348h-77.056l-30.216-36.312
			c-8.64-10.361-19.864-18.257-32.536-22.888c5.642-8.307,9.647-17.615,11.8-27.424c22.944-4.576,41.944-12.32,41.944-25.376
			c0-12.192-14.808-20.536-46.584-26.256c-0.383-0.028-0.768-0.028-1.152,0C270.45,5.873,222.797-11.182,182.887,7.691
			c-16.723,7.908-30.185,21.37-38.093,38.093c-0.383-0.028-0.768-0.028-1.152,0c-31.776,5.72-46.584,14.064-46.584,26.256
			c0,13.056,19,20.8,41.944,25.36c2.021,9.276,5.698,18.11,10.856,26.08l-16.2,11.472C90.617,165.575,55.045,205.52,29.594,251.807
			c-2.972,5.442-4.532,11.543-4.536,17.744v5.912c-0.075,20.125,16.178,36.501,36.303,36.576c0,0,0,0,0.001,0h51.696v24
			c0,4.418,3.582,8,8,8s8-3.582,8-8v-24h32c17.673,0,32-14.327,32-32c0-17.673-14.327-32-32-32H77.25c-4.418,0-8,3.582-8,8
			s3.582,8,8,8h83.808c8.837,0,16,7.163,16,16s-7.163,16-16,16H61.362c-5.373-0.012-10.52-2.162-14.304-5.976
			c-3.852-3.881-6.01-9.131-6-14.6v-5.912c0-3.512,0.883-6.967,2.568-10.048c24.286-44.15,58.223-82.251,99.28-111.464
			l17.176-12.168c0.321,0.08,0.647,0.136,0.976,0.168h95.736c18.073-0.018,35.213,8.017,46.76,21.92l32.616,39.2
			c1.519,1.824,3.77,2.879,6.144,2.88h80.8c8.837,0,16,7.163,16,16s-7.163,16-16,16h-93.368l-50.888-53.512
			c-3.043-3.203-8.107-3.333-11.31-0.29c-1.59,1.511-2.491,3.608-2.49,5.802v152c0,4.418,3.582,8,8,8s8-3.582,8-8v-132
			l39.464,41.496c1.509,1.587,3.602,2.486,5.792,2.488h50.984c-1.594,1.127-3.104,2.368-4.52,3.712
			c-7.527,7.493-11.747,17.683-11.72,28.304v10.744c0,4.418,3.582,8,8,8s8-3.582,8-8v-10.744c-0.015-6.37,2.517-12.482,7.032-16.976
			c9.5-9.056,24.436-9.056,33.936,0c4.512,4.496,7.043,10.606,7.032,16.976v88c0,4.418,3.582,8,8,8s8-3.582,8-8v-88
			c0.231-12.786-5.929-24.845-16.424-32.152C442.254,247.006,455.823,232.007,454.942,214.387z M217.058,16.039
			c22.934,0.053,44.092,12.357,55.48,32.264c-17.94,5.623-36.686,8.237-55.48,7.736c-18.794,0.501-37.54-2.113-55.48-7.736
			C172.966,28.397,194.124,16.093,217.058,16.039z M113.786,72.087c2.808-2.304,11.76-6.792,32.688-10.552
			c1.062-0.194,2.074-0.599,2.976-1.192c13.576,7.208,39.432,11.696,67.608,11.696c28.176,0,54.032-4.488,67.608-11.696
			c0.902,0.593,1.914,0.998,2.976,1.192c20.928,3.76,29.88,8.248,32.688,10.552c-7.08,6.224-44.232,15.952-103.272,15.952
			C158.018,88.039,120.866,78.311,113.786,72.087z M266.314,120.679c-3.157-0.411-6.336-0.624-9.52-0.64h-89.48
			c-4.766-5.895-8.432-12.599-10.824-19.792c20.096,2.467,40.321,3.733,60.568,3.792c20.247-0.059,40.472-1.325,60.568-3.792
			C275.156,107.701,271.32,114.63,266.314,120.679z" fill="#ffffff" data-original="#000000"></path>
	</g>
</g>
<g>
</g>
<g>
</g>
<g>
</g>
<g>
</g>
<g>
</g>
<g>
</g>
<g>
</g>
<g>
</g>
<g>
</g>
<g>
</g>
<g>
</g>
<g>
</g>
<g>
</g>
<g>
</g>
<g>
</g>
</g></svg>