<svg xmlns="http://www.w3.org/2000/svg" version="1.1" xmlns:xlink="http://www.w3.org/1999/xlink" xmlns:svgjs="http://svgjs.com/svgjs" width="512" height="512" x="0" y="0" viewBox="0 0 682.66669 682.66669" style="enable-background:new 0 0 512 512" xml:space="preserve" class=""><g><defs id="defs5272"><clipPath clipPathUnits="userSpaceOnUse" id="clipPath5282"><path d="M 0,512 H 512 V 0 H 0 Z" id="path5280" fill="#00cde5" data-original="#000000" class=""></path></clipPath></defs><g id="g5274" transform="matrix(1.3333333,0,0,-1.3333333,0,682.66667)"><g id="g5276"><g id="g5278" clip-path="url(#clipPath5282)"><g id="g5284" transform="translate(313.4951,312)"><path d="M 0,0 V 0 C -19.883,0 -36,16.117 -36,36 V 47 H 36 V 36 C 36,16.117 19.882,0 0,0 Z" style="stroke-width:15;stroke-linecap:round;stroke-linejoin:round;stroke-miterlimit:10;stroke-dasharray:none;stroke-opacity:1" id="path5286" fill="none" stroke="#00cde5" stroke-width="15" stroke-linecap="round" stroke-linejoin="round" stroke-miterlimit="10" stroke-dasharray="none" stroke-opacity="" data-original="#000000" class=""></path></g><g id="g5288" transform="translate(385.4697,133.0635)"><path d="M 0,0 -2.218,88.278" style="stroke-width:15;stroke-linecap:round;stroke-linejoin:round;stroke-miterlimit:10;stroke-dasharray:none;stroke-opacity:1" id="path5290" fill="none" stroke="#00cde5" stroke-width="15" stroke-linecap="round" stroke-linejoin="round" stroke-miterlimit="10" stroke-dasharray="none" stroke-opacity="" data-original="#000000" class=""></path></g><g id="g5292" transform="translate(456.1006,221.042)"><path d="m 0,0 c 3.179,-9.2 3.945,-19.169 2.073,-28.926 l -29.674,-154.616 h -40.628 l -1.523,60.584" style="stroke-width:15;stroke-linecap:round;stroke-linejoin:round;stroke-miterlimit:10;stroke-dasharray:none;stroke-opacity:1" id="path5294" fill="none" stroke="#00cde5" stroke-width="15" stroke-linecap="round" stroke-linejoin="round" stroke-miterlimit="10" stroke-dasharray="none" stroke-opacity="" data-original="#000000" class=""></path></g><g id="g5296" transform="translate(428.5,37.5)"><path d="m 0,0 v -27 c 0,-1.657 -1.343,-3 -3,-3 h -67 c -1.657,0 -3,1.343 -3,3 0,14.912 12.088,27 27,27 h 5.371" style="stroke-width:15;stroke-linecap:round;stroke-linejoin:round;stroke-miterlimit:10;stroke-dasharray:none;stroke-opacity:1" id="path5298" fill="none" stroke="#00cde5" stroke-width="15" stroke-linecap="round" stroke-linejoin="round" stroke-miterlimit="10" stroke-dasharray="none" stroke-opacity="" data-original="#000000" class=""></path></g><g id="g5300" transform="translate(464.4951,263.5)"><path d="M 0,0 V -42 H -91 V 8.202" style="stroke-width:15;stroke-linecap:round;stroke-linejoin:round;stroke-miterlimit:10;stroke-dasharray:none;stroke-opacity:1" id="path5302" fill="none" stroke="#00cde5" stroke-width="15" stroke-linecap="round" stroke-linejoin="round" stroke-miterlimit="10" stroke-dasharray="none" stroke-opacity="" data-original="#000000" class=""></path></g><g id="g5304" transform="translate(373.4951,312.2979)"><path d="M 0,0 V 29.374 C 0,40.193 4.078,50.615 11.421,58.561 L 30.5,79.202 h 30 L 71.281,68.597 C 83.896,56.189 91,39.237 91,21.544 v -35.342" style="stroke-width:15;stroke-linecap:round;stroke-linejoin:round;stroke-miterlimit:10;stroke-dasharray:none;stroke-opacity:1" id="path5306" fill="none" stroke="#00cde5" stroke-width="15" stroke-linecap="round" stroke-linejoin="round" stroke-miterlimit="10" stroke-dasharray="none" stroke-opacity="" data-original="#000000" class=""></path></g><g id="g5308" transform="translate(407.5498,272)"><path d="M 0,0 H -60.055 V 40 H -8.55 v 59.601 c 0.056,11.045 8.949,19.955 19.995,19.899 11.045,-0.056 19.061,-9.055 19.005,-20.101 V 30.844 C 30.364,13.784 17.06,0 0,0 Z" style="stroke-width:15;stroke-linecap:round;stroke-linejoin:round;stroke-miterlimit:10;stroke-dasharray:none;stroke-opacity:1" id="path5310" fill="none" stroke="#00cde5" stroke-width="15" stroke-linecap="round" stroke-linejoin="round" stroke-miterlimit="10" stroke-dasharray="none" stroke-opacity="" data-original="#000000" class=""></path></g><g id="g5312" transform="translate(455.4951,463)"><path d="m 0,0 c 0,-22.92 -17.014,-41.5 -38,-41.5 -29,0 -38,1 -38,41.5 0,22.92 17.013,41.5 38,41.5 C -17.014,41.5 0,22.92 0,0 Z" style="stroke-width:15;stroke-linecap:round;stroke-linejoin:round;stroke-miterlimit:10;stroke-dasharray:none;stroke-opacity:1" id="path5314" fill="none" stroke="#00cde5" stroke-width="15" stroke-linecap="round" stroke-linejoin="round" stroke-miterlimit="10" stroke-dasharray="none" stroke-opacity="" data-original="#000000" class=""></path></g><g id="g5316" transform="translate(403.9951,391.5)"><path d="M 0,0 V 29" style="stroke-width:15;stroke-linecap:round;stroke-linejoin:round;stroke-miterlimit:10;stroke-dasharray:none;stroke-opacity:1" id="path5318" fill="none" stroke="#00cde5" stroke-width="15" stroke-linecap="round" stroke-linejoin="round" stroke-miterlimit="10" stroke-dasharray="none" stroke-opacity="" data-original="#000000" class=""></path></g><g id="g5320" transform="translate(433.9951,422.5)"><path d="M 0,0 V -31" style="stroke-width:15;stroke-linecap:round;stroke-linejoin:round;stroke-miterlimit:10;stroke-dasharray:none;stroke-opacity:1" id="path5322" fill="none" stroke="#00cde5" stroke-width="15" stroke-linecap="round" stroke-linejoin="round" stroke-miterlimit="10" stroke-dasharray="none" stroke-opacity="" data-original="#000000" class=""></path></g><g id="g5324" transform="translate(347.4951,285)"><path d="M 0,0 H -39 C -53.912,0 -66,12.088 -66,27 H 0" style="stroke-width:15;stroke-linecap:round;stroke-linejoin:round;stroke-miterlimit:10;stroke-dasharray:none;stroke-opacity:1" id="path5326" fill="none" stroke="#00cde5" stroke-width="15" stroke-linecap="round" stroke-linejoin="round" stroke-miterlimit="10" stroke-dasharray="none" stroke-opacity="" data-original="#000000" class=""></path></g><g id="g5328" transform="translate(455.4951,465)"><path d="m 0,0 v 0 c 7.843,-0.28 14.086,-6.666 14.189,-14.513 l 0.132,-10.014 C 14.436,-33.256 18.907,-41.35 26.236,-46.093 32.17,-49.933 40,-45.674 40,-38.605 V 2.977 C 40,20.425 22.593,32.518 6.241,26.429 L -6.558,21.663" style="stroke-width:15;stroke-linecap:round;stroke-linejoin:round;stroke-miterlimit:10;stroke-dasharray:none;stroke-opacity:1" id="path5330" fill="none" stroke="#00cde5" stroke-width="15" stroke-linecap="round" stroke-linejoin="round" stroke-miterlimit="10" stroke-dasharray="none" stroke-opacity="" data-original="#000000" class=""></path></g><g id="g5332" transform="translate(444.4951,436.5)"><path d="M 0,0 -19.062,30.792 C -23.376,37.76 -30.987,42 -39.182,42 H -62" style="stroke-width:15;stroke-linecap:round;stroke-linejoin:round;stroke-miterlimit:10;stroke-dasharray:none;stroke-opacity:1" id="path5334" fill="none" stroke="#00cde5" stroke-width="15" stroke-linecap="round" stroke-linejoin="round" stroke-miterlimit="10" stroke-dasharray="none" stroke-opacity="" data-original="#000000" class=""></path></g><g id="g5336" transform="translate(277.4951,390)"><path d="M 0,0 18,-31" style="stroke-width:15;stroke-linecap:round;stroke-linejoin:round;stroke-miterlimit:10;stroke-dasharray:none;stroke-opacity:1" id="path5338" fill="none" stroke="#00cde5" stroke-width="15" stroke-linecap="round" stroke-linejoin="round" stroke-miterlimit="10" stroke-dasharray="none" stroke-opacity="" data-original="#000000" class=""></path></g><g id="g5340" transform="translate(52.5049,195.5107)"><path d="m 0,0 v 72.989 c 0,8.284 6.716,15 15,15 8.837,0 16,-7.163 16,-16" style="stroke-width:15;stroke-linecap:round;stroke-linejoin:round;stroke-miterlimit:10;stroke-dasharray:none;stroke-opacity:1" id="path5342" fill="none" stroke="#00cde5" stroke-width="15" stroke-linecap="round" stroke-linejoin="round" stroke-miterlimit="10" stroke-dasharray="none" stroke-opacity="" data-original="#000000" class=""></path></g><g id="g5344" transform="translate(103.3643,303.5)"><path d="m 0,0 h 34.141 c 16.612,-15.973 26,-38.024 26,-61.069 v -17.835" style="stroke-width:15;stroke-linecap:round;stroke-linejoin:round;stroke-miterlimit:10;stroke-dasharray:none;stroke-opacity:1" id="path5346" fill="none" stroke="#00cde5" stroke-width="15" stroke-linecap="round" stroke-linejoin="round" stroke-miterlimit="10" stroke-dasharray="none" stroke-opacity="" data-original="#000000" class=""></path></g><g id="g5348" transform="translate(103.5049,303.5)"><path d="M 0,0 V 33.245" style="stroke-width:15;stroke-linecap:round;stroke-linejoin:round;stroke-miterlimit:10;stroke-dasharray:none;stroke-opacity:1" id="path5350" fill="none" stroke="#00cde5" stroke-width="15" stroke-linecap="round" stroke-linejoin="round" stroke-miterlimit="10" stroke-dasharray="none" stroke-opacity="" data-original="#000000" class=""></path></g><g id="g5352" transform="translate(137.5049,334.4473)"><path d="M 0,0 V -30.947" style="stroke-width:15;stroke-linecap:round;stroke-linejoin:round;stroke-miterlimit:10;stroke-dasharray:none;stroke-opacity:1" id="path5354" fill="none" stroke="#00cde5" stroke-width="15" stroke-linecap="round" stroke-linejoin="round" stroke-miterlimit="10" stroke-dasharray="none" stroke-opacity="" data-original="#000000" class=""></path></g><g id="g5356" transform="translate(227.8301,185.5)"><path d="M 0,0 H 16.428 C 31.082,0 42.594,-12.547 41.335,-27.147 L 33.675,-116 H -6.367" style="stroke-width:15;stroke-linecap:round;stroke-linejoin:round;stroke-miterlimit:10;stroke-dasharray:none;stroke-opacity:1" id="path5358" fill="none" stroke="#00cde5" stroke-width="15" stroke-linecap="round" stroke-linejoin="round" stroke-miterlimit="10" stroke-dasharray="none" stroke-opacity="" data-original="#000000" class=""></path></g><g id="g5360" transform="translate(228.3564,140.9346)"><path d="M 0,0 C -4.144,16.728 -12.204,31.909 -23.151,44.516" style="stroke-width:15;stroke-linecap:round;stroke-linejoin:round;stroke-miterlimit:10;stroke-dasharray:none;stroke-opacity:1" id="path5362" fill="none" stroke="#00cde5" stroke-width="15" stroke-linecap="round" stroke-linejoin="round" stroke-miterlimit="10" stroke-dasharray="none" stroke-opacity="" data-original="#000000" class=""></path></g><g id="g5364" transform="translate(34.9697,54.7402)"><path d="m 0,0 c 19.332,-28.508 51.996,-47.24 89.035,-47.24 56.425,0 102.696,43.471 107.15,98.75" style="stroke-width:15;stroke-linecap:round;stroke-linejoin:round;stroke-miterlimit:10;stroke-dasharray:none;stroke-opacity:1" id="path5366" fill="none" stroke="#00cde5" stroke-width="15" stroke-linecap="round" stroke-linejoin="round" stroke-miterlimit="10" stroke-dasharray="none" stroke-opacity="" data-original="#000000" class=""></path></g><g id="g5368" transform="translate(83.2705,214.5137)"><path d="m 0,0 c -39.173,-16.052 -66.766,-54.561 -66.766,-99.514 0,-9.984 1.362,-19.651 3.91,-28.825" style="stroke-width:15;stroke-linecap:round;stroke-linejoin:round;stroke-miterlimit:10;stroke-dasharray:none;stroke-opacity:1" id="path5370" fill="none" stroke="#00cde5" stroke-width="15" stroke-linecap="round" stroke-linejoin="round" stroke-miterlimit="10" stroke-dasharray="none" stroke-opacity="" data-original="#000000" class=""></path></g><g id="g5372" transform="translate(99.6875,188.6084)"><path d="m 0,0 c -30.89,-10.199 -53.183,-39.301 -53.183,-73.608 0,-42.802 34.699,-77.5 77.5,-77.5 42.803,0 77.5,34.698 77.5,77.5 0,31.17 -18.4,58.041 -44.931,70.344" style="stroke-width:15;stroke-linecap:round;stroke-linejoin:round;stroke-miterlimit:10;stroke-dasharray:none;stroke-opacity:1" id="path5374" fill="none" stroke="#00cde5" stroke-width="15" stroke-linecap="round" stroke-linejoin="round" stroke-miterlimit="10" stroke-dasharray="none" stroke-opacity="" data-original="#000000" class=""></path></g><g id="g5376" transform="translate(74.2695,374.6934)"><path d="m 0,0 c 3.92,-23.09 22.458,-40.575 44.735,-40.575 34.724,0 45.5,1.197 45.5,49.691 0,27.444 -20.371,49.691 -45.5,49.691 -17.359,0 -32.448,-10.618 -40.119,-26.231" style="stroke-width:15;stroke-linecap:round;stroke-linejoin:round;stroke-miterlimit:10;stroke-dasharray:none;stroke-opacity:1" id="path5378" fill="none" stroke="#00cde5" stroke-width="15" stroke-linecap="round" stroke-linejoin="round" stroke-miterlimit="10" stroke-dasharray="none" stroke-opacity="" data-original="#000000" class=""></path></g><g id="g5380" transform="translate(95.0049,375)"><path d="m 0,0 h -20 c -8.836,0 -16,7.163 -16,16 0,8.837 7.164,16 16,16 H 0 C 8.837,32 16,24.837 16,16 16,7.163 8.837,0 0,0 Z" style="stroke-width:15;stroke-linecap:round;stroke-linejoin:round;stroke-miterlimit:10;stroke-dasharray:none;stroke-opacity:1" id="path5382" fill="none" stroke="#00cde5" stroke-width="15" stroke-linecap="round" stroke-linejoin="round" stroke-miterlimit="10" stroke-dasharray="none" stroke-opacity="" data-original="#000000" class=""></path></g><g id="g5384" transform="translate(221.5049,39.5)"><path d="M 0,0 H 73 V 3 C 73,17.912 60.912,30 46,30 H 0 Z" style="stroke-width:15;stroke-linecap:round;stroke-linejoin:round;stroke-miterlimit:10;stroke-dasharray:none;stroke-opacity:1" id="path5386" fill="none" stroke="#00cde5" stroke-width="15" stroke-linecap="round" stroke-linejoin="round" stroke-miterlimit="10" stroke-dasharray="none" stroke-opacity="" data-original="#000000" class=""></path></g><g id="g5388" transform="translate(124.5049,88.915)"><path d="M 0,0 V -50.415" style="stroke-width:15;stroke-linecap:round;stroke-linejoin:round;stroke-miterlimit:10;stroke-dasharray:none;stroke-opacity:1" id="path5390" fill="none" stroke="#00cde5" stroke-width="15" stroke-linecap="round" stroke-linejoin="round" stroke-miterlimit="10" stroke-dasharray="none" stroke-opacity="" data-original="#000000" class=""></path></g><g id="g5392" transform="translate(124.5049,184.5)"><path d="M 0,0 V -43.415" style="stroke-width:15;stroke-linecap:round;stroke-linejoin:round;stroke-miterlimit:10;stroke-dasharray:none;stroke-opacity:1" id="path5394" fill="none" stroke="#00cde5" stroke-width="15" stroke-linecap="round" stroke-linejoin="round" stroke-miterlimit="10" stroke-dasharray="none" stroke-opacity="" data-original="#000000" class=""></path></g><g id="g5396" transform="translate(98.0215,115)"><path d="M 0,0 H -50.017" style="stroke-width:15;stroke-linecap:round;stroke-linejoin:round;stroke-miterlimit:10;stroke-dasharray:none;stroke-opacity:1" id="path5398" fill="none" stroke="#00cde5" stroke-width="15" stroke-linecap="round" stroke-linejoin="round" stroke-miterlimit="10" stroke-dasharray="none" stroke-opacity="" data-original="#000000" class=""></path></g><g id="g5400" transform="translate(201.0049,115)"><path d="M 0,0 H -50.813" style="stroke-width:15;stroke-linecap:round;stroke-linejoin:round;stroke-miterlimit:10;stroke-dasharray:none;stroke-opacity:1" id="path5402" fill="none" stroke="#00cde5" stroke-width="15" stroke-linecap="round" stroke-linejoin="round" stroke-miterlimit="10" stroke-dasharray="none" stroke-opacity="" data-original="#000000" class=""></path></g><g id="g5404" transform="translate(105.7529,96.2471)"><path d="M 0,0 -35.341,-35.341" style="stroke-width:15;stroke-linecap:round;stroke-linejoin:round;stroke-miterlimit:10;stroke-dasharray:none;stroke-opacity:1" id="path5406" fill="none" stroke="#00cde5" stroke-width="15" stroke-linecap="round" stroke-linejoin="round" stroke-miterlimit="10" stroke-dasharray="none" stroke-opacity="" data-original="#000000" class=""></path></g><g id="g5408" transform="translate(178.5986,169.0937)"><path d="M 0,0 -35.952,-35.953" style="stroke-width:15;stroke-linecap:round;stroke-linejoin:round;stroke-miterlimit:10;stroke-dasharray:none;stroke-opacity:1" id="path5410" fill="none" stroke="#00cde5" stroke-width="15" stroke-linecap="round" stroke-linejoin="round" stroke-miterlimit="10" stroke-dasharray="none" stroke-opacity="" data-original="#000000" class=""></path></g><g id="g5412" transform="translate(105.7949,133.71)"><path d="M 0,0 -35.383,35.384" style="stroke-width:15;stroke-linecap:round;stroke-linejoin:round;stroke-miterlimit:10;stroke-dasharray:none;stroke-opacity:1" id="path5414" fill="none" stroke="#00cde5" stroke-width="15" stroke-linecap="round" stroke-linejoin="round" stroke-miterlimit="10" stroke-dasharray="none" stroke-opacity="" data-original="#000000" class=""></path></g><g id="g5416" transform="translate(178.5986,60.9063)"><path d="M 0,0 -35.867,35.868" style="stroke-width:15;stroke-linecap:round;stroke-linejoin:round;stroke-miterlimit:10;stroke-dasharray:none;stroke-opacity:1" id="path5418" fill="none" stroke="#00cde5" stroke-width="15" stroke-linecap="round" stroke-linejoin="round" stroke-miterlimit="10" stroke-dasharray="none" stroke-opacity="" data-original="#000000" class=""></path></g><g id="g5420" transform="translate(149.5049,115)"><path d="M 0,0 C 0,14.083 -11.416,25.5 -25.5,25.5 -39.583,25.5 -51,14.083 -51,0 -51,-14.083 -39.583,-25.5 -25.5,-25.5 -11.416,-25.5 0,-14.083 0,0 Z" style="stroke-width:15;stroke-linecap:round;stroke-linejoin:round;stroke-miterlimit:10;stroke-dasharray:none;stroke-opacity:1" id="path5422" fill="none" stroke="#00cde5" stroke-width="15" stroke-linecap="round" stroke-linejoin="round" stroke-miterlimit="10" stroke-dasharray="none" stroke-opacity="" data-original="#000000" class=""></path></g><g id="g5424" transform="translate(113.499,185.5)"><path d="M 0,0 H 61.015 V 38.833 H 10.128 L 9.83,98.184 C 9.775,109.183 0.813,118.055 -10.186,118 c -11,-0.056 -19.872,-9.018 -19.816,-20.017 L -30,29.999 C -29.999,13.431 -16.568,0 0,0 Z" style="stroke-width:15;stroke-linecap:round;stroke-linejoin:round;stroke-miterlimit:10;stroke-dasharray:none;stroke-opacity:1" id="path5426" fill="none" stroke="#00cde5" stroke-width="15" stroke-linecap="round" stroke-linejoin="round" stroke-miterlimit="10" stroke-dasharray="none" stroke-opacity="" data-original="#000000" class=""></path></g><g id="g5428" transform="translate(227.5049,185.5)"><path d="m 0,0 h -53 v 31 h 22 C -13.879,31 0,17.121 0,0 Z" style="stroke-width:15;stroke-linecap:round;stroke-linejoin:round;stroke-miterlimit:10;stroke-dasharray:none;stroke-opacity:1" id="path5430" fill="none" stroke="#00cde5" stroke-width="15" stroke-linecap="round" stroke-linejoin="round" stroke-miterlimit="10" stroke-dasharray="none" stroke-opacity="" data-original="#000000" class=""></path></g><g id="g5432" transform="translate(294.5049,39.5)"><path d="M 0,0 H 2.5 C 9.404,0 15,-5.597 15,-12.5 15,-19.403 9.404,-25 2.5,-25 H -73 V 0" style="stroke-width:15;stroke-linecap:round;stroke-linejoin:round;stroke-miterlimit:10;stroke-dasharray:none;stroke-opacity:1" id="path5434" fill="none" stroke="#00cde5" stroke-width="15" stroke-linecap="round" stroke-linejoin="round" stroke-miterlimit="10" stroke-dasharray="none" stroke-opacity="" data-original="#000000" class=""></path></g></g></g></g></g></svg>