<svg xmlns="http://www.w3.org/2000/svg" version="1.1" xmlns:xlink="http://www.w3.org/1999/xlink" xmlns:svgjs="http://svgjs.com/svgjs" width="512" height="512" x="0" y="0" viewBox="0 0 512 512" style="enable-background:new 0 0 512 512" xml:space="preserve" class=""><g><g><g><path d="m263.904 123.21c1.701 11.957 12.002 21.183 24.421 21.183 13.604 0 24.673-11.068 24.673-24.673s-11.068-24.673-24.673-24.673c-9.186 0-17.209 5.05-21.456 12.515-3.044-1.383-6.692-2.413-10.869-2.413s-7.825 1.031-10.869 2.413c-4.247-7.465-12.271-12.515-21.456-12.515-13.604 0-24.673 11.068-24.673 24.673s11.068 24.673 24.673 24.673c12.42 0 22.721-9.227 24.422-21.185 1.675-1.319 4.526-3.06 7.904-3.06 3.38.001 6.229 1.743 7.903 3.062zm24.421-13.163c5.334 0 9.673 4.339 9.673 9.673s-4.339 9.673-9.673 9.673-9.673-4.339-9.673-9.673 4.339-9.673 9.673-9.673zm-64.65 19.346c-5.334 0-9.673-4.339-9.673-9.673s4.339-9.673 9.673-9.673c5.283 0 9.583 4.257 9.665 9.521-.002.075.004.151.004.226-.041 5.3-4.36 9.599-9.669 9.599z" fill="#00cde5" data-original="#000000" class=""></path><path d="m506.965 156.761c-.177-4.139-3.68-7.341-7.813-7.174-4.138.176-7.35 3.674-7.174 7.813l4.993 117.295-35.219 200.227c-.075.429-.113.863-.113 1.299v20.779h-101.158v-20.78c0-1.338-.357-2.651-1.036-3.804l-11.841-20.119c-3.984-6.772-6.414-14.399-7.115-22.223 9.425-10.358 14.414-23.674 14.093-37.786-.16-7.044-1.653-13.827-4.325-20.098l59.438-156.235c1.931-5.219 5.788-9.355 10.859-11.648s10.728-2.455 15.921-.458c10.542 4.055 15.891 15.956 11.923 26.531l-32.126 85.616c-1.456 3.878.509 8.201 4.387 9.656 3.878 1.459 8.201-.509 9.656-4.387l32.126-85.616c6.262-16.688-.92-35.282-16.1-43.701v-125.768c0-5.572 2.173-10.818 6.114-14.766 3.942-3.943 9.183-6.114 14.756-6.114 11.218 0 20.375 8.778 20.847 19.999l2.497 56.919c.182 4.138 3.677 7.37 7.822 7.164 4.138-.182 7.346-3.684 7.164-7.822l-2.497-56.905c-.811-19.265-16.552-34.355-35.834-34.355-9.58 0-18.587 3.731-25.367 10.512-6.773 6.784-10.503 15.794-10.503 25.368v121.349c-5.757-.376-11.554.661-16.967 3.109-8.755 3.958-15.413 11.101-18.749 20.113l-22.682 61.354-74.087-19.759v-32.108c25.621-14.28 43.433-40.941 45.291-71.838 14.648-.666 26.366-12.759 26.428-27.554 0-.039.006-.077.006-.117v-43c0-26.418-21.492-47.91-47.91-47.91h-.525c-16.768-18.994-40.66-29.819-66.145-29.819s-49.376 10.825-66.144 29.819h-.527c-26.416 0-47.906 21.49-47.906 47.906v34.923 8.082c0 14.849 11.744 27.003 26.431 27.671 1.858 30.896 19.67 57.557 45.291 71.838v32.108l-74.091 19.76-22.68-61.359c-3.33-9.006-9.982-16.146-18.732-20.104-5.416-2.45-11.218-3.488-16.981-3.111v-121.353c0-9.574-3.729-18.584-10.507-25.373-6.777-6.776-15.784-10.507-25.364-10.507-19.282 0-35.021 15.09-35.833 34.35l-8.95 210.221c-.023.542.013 1.085.106 1.618l18.541 105.411c.641 3.641 3.805 6.203 7.378 6.202.431 0 .869-.037 1.308-.114 4.08-.718 6.806-4.606 6.088-8.686l-18.4-104.608 8.915-209.409c.472-11.207 9.629-19.985 20.847-19.985 5.573 0 10.813 2.171 14.752 6.109 3.945 3.952 6.118 9.198 6.118 14.771v125.783c-11.157 6.219-18.38 18.187-18.38 31.167 0 4.265.766 8.473 2.278 12.515l32.13 85.62c1.455 3.879 5.779 5.846 9.656 4.387 3.878-1.455 5.843-5.778 4.387-9.656l-32.127-85.613c-.879-2.349-1.324-4.788-1.324-7.252 0-8.485 5.322-16.233 13.24-19.279 5.202-2.001 10.862-1.837 15.938.46 5.067 2.292 8.919 6.426 10.847 11.64l59.44 156.239c-2.673 6.271-4.165 13.054-4.325 20.098-.322 14.119 4.672 27.439 14.093 37.786-.701 7.824-3.131 15.451-7.115 22.223l-11.841 20.12c-.679 1.152-1.036 2.466-1.036 3.804v20.778h-101.161v-20.78c0-.436-.038-.87-.113-1.3l-10.737-61.039c-.718-4.079-4.609-6.805-8.687-6.087-4.079.718-6.805 4.606-6.087 8.687l10.624 60.394v27.625c0 4.143 3.357 7.5 7.5 7.5h116.16c4.143 0 7.5-3.357 7.5-7.5v-26.237l10.805-18.36c3.098-5.265 5.459-10.934 7.044-16.815l66.313 66.701c1.407 1.416 3.321 2.212 5.318 2.212s3.911-.796 5.318-2.212l28.544-28.711c2.921-2.938 2.907-7.687-.03-10.606-2.938-2.92-7.686-2.905-10.606.03l-23.226 23.36-72.059-72.48c-7.681-7.68-11.773-17.891-11.526-28.753.246-10.855 4.815-20.88 12.863-28.228 14.737-13.454 37.913-13.561 52.766-.239 5.009 4.493 8.671 9.949 10.884 16.215 1.06 2.997 3.893 5.002 7.072 5.002s6.013-2.005 7.072-5.002c2.213-6.266 5.875-11.722 10.884-16.215 14.851-13.321 38.027-13.216 52.766.239 8.048 7.348 12.617 17.372 12.863 28.228.247 10.862-3.846 21.073-11.541 28.769l-24 24.141c-2.921 2.938-2.907 7.687.03 10.606 2.939 2.922 7.688 2.906 10.606-.03l12.951-13.027c1.585 5.881 3.946 11.551 7.044 16.816l10.805 18.359v26.237c0 4.143 3.357 7.5 7.5 7.5h116.16c4.143 0 7.5-3.357 7.5-7.5v-27.626l35.247-200.385c.094-.533.13-1.076.106-1.618zm-151.388-36.03c0 6.518-4.935 11.905-11.264 12.622v-33.326c6.329.717 11.264 6.104 11.264 12.622zm-37.877-73.311c0-1.273.943-2.375 2.267-2.574.11-.018.214-.025.333-.025h2.37c18.146 0 32.91 14.764 32.91 32.91v10.313c-3.809-1.975-8.127-3.098-12.706-3.098l-12.474-.096c-7.003 0-12.7-5.697-12.7-12.699zm-150.013 85.933c-6.329-.717-11.264-6.104-11.264-12.622v-8.082c0-6.518 4.935-11.905 11.264-12.622zm1.439-48.408c-4.577 0-8.895 1.123-12.703 3.097v-10.316c0-18.145 14.762-32.906 32.906-32.906h2.368c1.435 0 2.602 1.167 2.602 2.602v24.728c0 7.005-5.698 12.703-12.703 12.703zm13.561 58.101v-43.22c14.771-.575 26.612-12.766 26.612-27.675v-24.73c0-4.464-1.684-8.533-4.433-11.639 13.616-13.297 31.824-20.782 51.134-20.782 19.315 0 37.528 7.489 51.145 20.792-2.768 3.133-4.445 7.228-4.445 11.628v24.73c0 14.909 11.841 27.098 26.613 27.672v43.224c0 40.425-32.889 73.313-73.313 73.313s-73.313-32.888-73.313-73.313zm101.169 83.808v28.151l-27.856 27.855-27.855-27.855v-28.151c8.761 2.919 18.126 4.505 27.855 4.505s19.095-1.586 27.856-4.505zm-108.691 126.469c-1.258 1.148-2.445 2.351-3.578 3.59l-16.195-40.626c.008-.134.021-.267.021-.402v-32.617l35.25-9.401 37.772 67.971c-18.057-5.689-38.664-1.848-53.27 11.485zm30.443-83.441 12.788-3.41 27.266 27.265-16.575 18.395zm50.398 90.69-19.217-34.581 19.211-21.32 19.218 21.328zm10.332-66.836 27.266-27.265 12.788 3.41-23.479 42.25zm70.497 59.587c-14.602-13.332-35.203-17.172-53.256-11.489l37.768-67.964 35.252 9.401v33.042l-16.186 40.6c-1.133-1.239-2.32-2.441-3.578-3.59z" fill="#00cde5" data-original="#000000" class=""></path></g></g></g></svg>