<svg xmlns="http://www.w3.org/2000/svg" version="1.1" xmlns:xlink="http://www.w3.org/1999/xlink" xmlns:svgjs="http://svgjs.com/svgjs" width="512" height="512" x="0" y="0" viewBox="0 0 682.66669 682.66669" style="enable-background:new 0 0 512 512" xml:space="preserve" class=""><g><defs id="defs3376"><clipPath clipPathUnits="userSpaceOnUse" id="clipPath3386"><path d="M 0,512 H 512 V 0 H 0 Z" id="path3384" fill="#00cde5" data-original="#000000" class=""></path></clipPath></defs><g id="g3378" transform="matrix(1.3333333,0,0,-1.3333333,0,682.66667)"><g id="g3380"><g id="g3382" clip-path="url(#clipPath3386)"><g id="g3388" transform="translate(178.6118,192.9604)"><path d="m 0,0 -27.005,52.073 c -4.787,9.23 -15.996,13.051 -25.425,8.666 -9.046,-4.208 -13.431,-14.586 -10.142,-24.005 l 22.146,-63.43 -71.699,45.765 -29.513,73.455 c -2.779,6.915 -10.138,10.819 -17.422,9.241 -8.483,-1.839 -13.734,-10.365 -11.56,-18.768 l 20.538,-79.38 c 2.43,-9.388 7.12,-18.037 13.663,-25.193 l 82.356,-90.077 c 3.866,-4.229 6.01,-9.751 6.01,-15.481 v -44.942" style="stroke-width:15;stroke-linecap:round;stroke-linejoin:round;stroke-miterlimit:10;stroke-dasharray:none;stroke-opacity:1" id="path3390" fill="none" stroke="#00cde5" stroke-width="15" stroke-linecap="round" stroke-linejoin="round" stroke-miterlimit="10" stroke-dasharray="none" stroke-opacity="" data-original="#000000" class=""></path></g><g id="g3392" transform="translate(233.5303,20.8843)"><path d="m 0,0 v 65.062 c 0,17.539 -5.308,34.667 -15.227,49.131 L -34.98,143" style="stroke-width:15;stroke-linecap:round;stroke-linejoin:round;stroke-miterlimit:10;stroke-dasharray:none;stroke-opacity:1" id="path3394" fill="none" stroke="#00cde5" stroke-width="15" stroke-linecap="round" stroke-linejoin="round" stroke-miterlimit="10" stroke-dasharray="none" stroke-opacity="" data-original="#000000" class=""></path></g><g id="g3396" transform="translate(146.6597,138.9106)"><path d="M 0,0 -8.474,27.354" style="stroke-width:15;stroke-linecap:round;stroke-linejoin:round;stroke-miterlimit:10;stroke-dasharray:none;stroke-opacity:1" id="path3398" fill="none" stroke="#00cde5" stroke-width="15" stroke-linecap="round" stroke-linejoin="round" stroke-miterlimit="10" stroke-dasharray="none" stroke-opacity="" data-original="#000000" class=""></path></g><g id="g3400" transform="translate(278.4697,20.8843)"><path d="m 0,0 v 65.062 c 0,17.539 5.308,34.667 15.227,49.131 l 39.691,57.883 27.006,52.073 c 4.787,9.23 15.996,13.051 25.424,8.666 9.046,-4.208 13.431,-14.586 10.143,-24.005 l -22.147,-63.43 71.699,45.765 29.514,73.456 c 2.778,6.915 10.138,10.818 17.421,9.24 8.483,-1.839 13.735,-10.364 11.561,-18.768 L 205,175.693 c -2.429,-9.387 -7.12,-18.037 -13.663,-25.193 L 108.982,60.423 c -3.866,-4.229 -6.01,-9.751 -6.01,-15.481 V 0" style="stroke-width:15;stroke-linecap:round;stroke-linejoin:round;stroke-miterlimit:10;stroke-dasharray:none;stroke-opacity:1" id="path3402" fill="none" stroke="#00cde5" stroke-width="15" stroke-linecap="round" stroke-linejoin="round" stroke-miterlimit="10" stroke-dasharray="none" stroke-opacity="" data-original="#000000" class=""></path></g><g id="g3404" transform="translate(365.3403,138.9106)"><path d="M 0,0 8.474,27.354" style="stroke-width:15;stroke-linecap:round;stroke-linejoin:round;stroke-miterlimit:10;stroke-dasharray:none;stroke-opacity:1" id="path3406" fill="none" stroke="#00cde5" stroke-width="15" stroke-linecap="round" stroke-linejoin="round" stroke-miterlimit="10" stroke-dasharray="none" stroke-opacity="" data-original="#000000" class=""></path></g><g id="g3408" transform="translate(282.8496,388.4346)"><path d="M 0,0 V 18.059 C 0,43.16 20.349,63.508 45.438,63.508 h 34.5 c 25.088,0 45.437,-20.348 45.437,-45.449 v -42.674 c 0,-30.303 -24.557,-54.86 -54.86,-54.86 H 54.86 c -26.671,0 -48.891,19.023 -53.834,44.244" style="stroke-width:15;stroke-linecap:round;stroke-linejoin:round;stroke-miterlimit:10;stroke-dasharray:none;stroke-opacity:1" id="path3410" fill="none" stroke="#00cde5" stroke-width="15" stroke-linecap="round" stroke-linejoin="round" stroke-miterlimit="10" stroke-dasharray="none" stroke-opacity="" data-original="#000000" class=""></path></g><g id="g3412" transform="translate(345.5371,451.9424)"><path d="m 0,0 c 0,0 -7.642,-63.508 -62.688,-63.508 v 18.059 C -62.688,-20.348 -42.339,0 -17.25,0 Z" style="stroke-width:15;stroke-linecap:round;stroke-linejoin:round;stroke-miterlimit:10;stroke-dasharray:none;stroke-opacity:1" id="path3414" fill="none" stroke="#00cde5" stroke-width="15" stroke-linecap="round" stroke-linejoin="round" stroke-miterlimit="10" stroke-dasharray="none" stroke-opacity="" data-original="#000000" class=""></path></g><g id="g3416" transform="translate(408.2246,406.4937)"><path d="m 0,0 v -18.059 c -55.045,0 -62.688,63.508 -62.688,63.508 h 17.25 C -20.349,45.449 0,25.101 0,0 Z" style="stroke-width:15;stroke-linecap:round;stroke-linejoin:round;stroke-miterlimit:10;stroke-dasharray:none;stroke-opacity:1" id="path3418" fill="none" stroke="#00cde5" stroke-width="15" stroke-linecap="round" stroke-linejoin="round" stroke-miterlimit="10" stroke-dasharray="none" stroke-opacity="" data-original="#000000" class=""></path></g><g id="g3420" transform="translate(365.1235,471.5293)"><path d="m 0,0 c 0,-10.817 -8.769,-19.587 -19.586,-19.587 -10.818,0 -19.587,8.77 -19.587,19.587 0,10.817 8.769,19.586 19.587,19.586 C -8.769,19.586 0,10.817 0,0 Z" style="stroke-width:15;stroke-linecap:round;stroke-linejoin:round;stroke-miterlimit:10;stroke-dasharray:none;stroke-opacity:1" id="path3422" fill="none" stroke="#00cde5" stroke-width="15" stroke-linecap="round" stroke-linejoin="round" stroke-miterlimit="10" stroke-dasharray="none" stroke-opacity="" data-original="#000000" class=""></path></g><g id="g3424" transform="translate(136.4829,448.4087)"><path d="M 0,0 C 9.479,5.423 20.47,8.527 32.175,8.527 43.88,8.527 54.86,5.423 64.34,0" style="stroke-width:15;stroke-linecap:round;stroke-linejoin:round;stroke-miterlimit:10;stroke-dasharray:none;stroke-opacity:1" id="path3426" fill="none" stroke="#00cde5" stroke-width="15" stroke-linecap="round" stroke-linejoin="round" stroke-miterlimit="10" stroke-dasharray="none" stroke-opacity="" data-original="#000000" class=""></path></g><g id="g3428" transform="translate(103.7803,392.0581)"><path d="m 0,0 v -4.864 -21.453 c 0,-31.358 25.417,-56.785 56.774,-56.785 h 16.197 c 31.357,0 56.774,25.427 56.774,56.785 V -4.864 0" style="stroke-width:15;stroke-linecap:round;stroke-linejoin:round;stroke-miterlimit:10;stroke-dasharray:none;stroke-opacity:1" id="path3430" fill="none" stroke="#00cde5" stroke-width="15" stroke-linecap="round" stroke-linejoin="round" stroke-miterlimit="10" stroke-dasharray="none" stroke-opacity="" data-original="#000000" class=""></path></g><g id="g3432" transform="translate(103.7754,387.1958)"><path d="M 0,0 V 28.507 C 0,46.573 14.646,61.218 32.711,61.218 32.711,61.218 49.447,0 0,0 Z" style="stroke-width:15;stroke-linecap:round;stroke-linejoin:round;stroke-miterlimit:10;stroke-dasharray:none;stroke-opacity:1" id="path3434" fill="none" stroke="#00cde5" stroke-width="15" stroke-linecap="round" stroke-linejoin="round" stroke-miterlimit="10" stroke-dasharray="none" stroke-opacity="" data-original="#000000" class=""></path></g><g id="g3436" transform="translate(233.5303,387.1958)"><path d="M 0,0 V 28.507 C 0,46.573 -14.645,61.218 -32.711,61.218 -32.711,61.218 -49.447,0 0,0 Z" style="stroke-width:15;stroke-linecap:round;stroke-linejoin:round;stroke-miterlimit:10;stroke-dasharray:none;stroke-opacity:1" id="path3438" fill="none" stroke="#00cde5" stroke-width="15" stroke-linecap="round" stroke-linejoin="round" stroke-miterlimit="10" stroke-dasharray="none" stroke-opacity="" data-original="#000000" class=""></path></g><g id="g3440" transform="translate(178.2466,356.1978)"><path d="m 0,0 c -2.691,-1.956 -6.013,-3.115 -9.594,-3.115 -3.58,0 -6.903,1.159 -9.593,3.115" style="stroke-width:15;stroke-linecap:round;stroke-linejoin:round;stroke-miterlimit:10;stroke-dasharray:none;stroke-opacity:1" id="path3442" fill="none" stroke="#00cde5" stroke-width="15" stroke-linecap="round" stroke-linejoin="round" stroke-miterlimit="10" stroke-dasharray="none" stroke-opacity="" data-original="#000000" class=""></path></g><g id="g3444" transform="translate(354.8071,354.6045)"><path d="m 0,0 c -2.6,-1.89 -5.81,-3.01 -9.27,-3.01 -3.46,0 -6.67,1.12 -9.27,3.01" style="stroke-width:15;stroke-linecap:round;stroke-linejoin:round;stroke-miterlimit:10;stroke-dasharray:none;stroke-opacity:1" id="path3446" fill="none" stroke="#00cde5" stroke-width="15" stroke-linecap="round" stroke-linejoin="round" stroke-miterlimit="10" stroke-dasharray="none" stroke-opacity="" data-original="#000000" class=""></path></g><g id="g3448" transform="translate(278.4697,44.3296)"><path d="m 0,0 h 102.972 l 24.847,14.757" style="stroke-width:15;stroke-linecap:round;stroke-linejoin:round;stroke-miterlimit:10;stroke-dasharray:none;stroke-opacity:1" id="path3450" fill="none" stroke="#00cde5" stroke-width="15" stroke-linecap="round" stroke-linejoin="round" stroke-miterlimit="10" stroke-dasharray="none" stroke-opacity="" data-original="#000000" class=""></path></g><g id="g3452" transform="translate(381.4414,44.3296)"><path d="M 0,0 24.847,-15.909" style="stroke-width:15;stroke-linecap:round;stroke-linejoin:round;stroke-miterlimit:10;stroke-dasharray:none;stroke-opacity:1" id="path3454" fill="none" stroke="#00cde5" stroke-width="15" stroke-linecap="round" stroke-linejoin="round" stroke-miterlimit="10" stroke-dasharray="none" stroke-opacity="" data-original="#000000" class=""></path></g><g id="g3456" transform="translate(58.6313,474.1558)"><path d="m 0,0 c 0,-4.13 -3.348,-7.479 -7.479,-7.479 -4.13,0 -7.479,3.349 -7.479,7.479 0,4.13 3.349,7.479 7.479,7.479 C -3.348,7.479 0,4.13 0,0" style="fill-opacity:1;fill-rule:nonzero;stroke:none" id="path3458" fill="#00cde5" data-original="#000000" class=""></path></g><g id="g3460" transform="translate(256,258.1396)"><path d="M 0,0 V -28.299" style="stroke-width:15;stroke-linecap:round;stroke-linejoin:round;stroke-miterlimit:10;stroke-dasharray:none;stroke-opacity:1" id="path3462" fill="none" stroke="#00cde5" stroke-width="15" stroke-linecap="round" stroke-linejoin="round" stroke-miterlimit="10" stroke-dasharray="none" stroke-opacity="" data-original="#000000" class=""></path></g><g id="g3464" transform="translate(270.1499,243.9897)"><path d="M 0,0 H -28.3" style="stroke-width:15;stroke-linecap:round;stroke-linejoin:round;stroke-miterlimit:10;stroke-dasharray:none;stroke-opacity:1" id="path3466" fill="none" stroke="#00cde5" stroke-width="15" stroke-linecap="round" stroke-linejoin="round" stroke-miterlimit="10" stroke-dasharray="none" stroke-opacity="" data-original="#000000" class=""></path></g></g></g></g></g></svg>