<svg xmlns="http://www.w3.org/2000/svg" version="1.1" xmlns:xlink="http://www.w3.org/1999/xlink" xmlns:svgjs="http://svgjs.com/svgjs" width="512" height="512" x="0" y="0" viewBox="0 0 682.66669 682.66669" style="enable-background:new 0 0 512 512" xml:space="preserve" class=""><g><defs id="defs4297"><clipPath clipPathUnits="userSpaceOnUse" id="clipPath4307"><path d="M 0,512 H 512 V 0 H 0 Z" id="path4305" fill="#00cde5" data-original="#000000" class=""></path></clipPath></defs><g id="g4299" transform="matrix(1.3333333,0,0,-1.3333333,0,682.66667)"><g id="g4301"><g id="g4303" clip-path="url(#clipPath4307)"><g id="g4309" transform="translate(226.6704,420.5547)"><path d="M 0,0 C -6.504,9.272 -20.279,23.383 -42.788,20.869 -61.852,18.74 -76.074,24.858 -85.105,30.914" style="stroke-width:15;stroke-linecap:round;stroke-linejoin:round;stroke-miterlimit:10;stroke-dasharray:none;stroke-opacity:1" id="path4311" fill="none" stroke="#00cde5" stroke-width="15" stroke-linecap="round" stroke-linejoin="round" stroke-miterlimit="10" stroke-dasharray="none" stroke-opacity="" data-original="#000000" class=""></path></g><g id="g4313" transform="translate(224.7119,410.7412)"><path d="M 0,0 C 0,0 -53.08,3.816 -72.873,-30.013" style="stroke-width:15;stroke-linecap:round;stroke-linejoin:round;stroke-miterlimit:10;stroke-dasharray:none;stroke-opacity:1" id="path4315" fill="none" stroke="#00cde5" stroke-width="15" stroke-linecap="round" stroke-linejoin="round" stroke-miterlimit="10" stroke-dasharray="none" stroke-opacity="" data-original="#000000" class=""></path></g><g id="g4317" transform="translate(322.9194,394.4844)"><path d="m 0,0 c -28.511,-7.2 -56.677,-7.201 -85.193,0 -9.925,2.507 -15.551,13.667 -11.979,23.812 0.04,0.113 0.08,0.226 0.119,0.339 2.995,8.506 11.488,13.279 19.812,11.189 23.345,-5.861 45.937,-5.863 69.289,0 8.324,2.09 16.817,-2.684 19.811,-11.189 0.04,-0.113 0.08,-0.226 0.12,-0.34 C 15.551,13.666 9.925,2.507 0,0 Z" style="stroke-width:15;stroke-linecap:round;stroke-linejoin:round;stroke-miterlimit:10;stroke-dasharray:none;stroke-opacity:1" id="path4319" fill="none" stroke="#00cde5" stroke-width="15" stroke-linecap="round" stroke-linejoin="round" stroke-miterlimit="10" stroke-dasharray="none" stroke-opacity="" data-original="#000000" class=""></path></g><g id="g4321" transform="translate(322.9209,429.7891)"><path d="m 0,0 c 13.454,19.536 35.978,56.158 25.832,69.296 -4.809,6.225 -8.909,-2.23 -18.854,-2.23 -11.685,0 -11.685,7.645 -23.369,7.645 -11.683,0 -11.683,-7.645 -23.367,-7.645 -11.682,0 -11.682,7.645 -23.365,7.645 -11.683,0 -11.683,-7.645 -23.365,-7.645 -9.956,0 -14.04,8.565 -18.88,2.336 -10.072,-12.964 11.655,-49.199 24.932,-68.898" style="stroke-width:15;stroke-linecap:round;stroke-linejoin:round;stroke-miterlimit:10;stroke-dasharray:none;stroke-opacity:1" id="path4323" fill="none" stroke="#00cde5" stroke-width="15" stroke-linecap="round" stroke-linejoin="round" stroke-miterlimit="10" stroke-dasharray="none" stroke-opacity="" data-original="#000000" class=""></path></g><g id="g4325" transform="translate(364.2954,378.6426)"><path d="M 0,0 C -9.32,8.303 -19.469,16.516 -30.488,24.597" style="stroke-width:15;stroke-linecap:round;stroke-linejoin:round;stroke-miterlimit:10;stroke-dasharray:none;stroke-opacity:1" id="path4327" fill="none" stroke="#00cde5" stroke-width="15" stroke-linecap="round" stroke-linejoin="round" stroke-miterlimit="10" stroke-dasharray="none" stroke-opacity="" data-original="#000000" class=""></path></g><g id="g4329" transform="translate(228.4189,400.7471)"><path d="M 0,0 C -92.736,-69.443 -121.721,-148.492 -112.267,-210.017" style="stroke-width:15;stroke-linecap:round;stroke-linejoin:round;stroke-miterlimit:10;stroke-dasharray:none;stroke-opacity:1" id="path4331" fill="none" stroke="#00cde5" stroke-width="15" stroke-linecap="round" stroke-linejoin="round" stroke-miterlimit="10" stroke-dasharray="none" stroke-opacity="" data-original="#000000" class=""></path></g><g id="g4333" transform="translate(427.9717,134.498)"><path d="M 0,0 C 36.987,51.994 36.101,138.002 -38.666,219.557" style="stroke-width:15;stroke-linecap:round;stroke-linejoin:round;stroke-miterlimit:10;stroke-dasharray:none;stroke-opacity:1" id="path4335" fill="none" stroke="#00cde5" stroke-width="15" stroke-linecap="round" stroke-linejoin="round" stroke-miterlimit="10" stroke-dasharray="none" stroke-opacity="" data-original="#000000" class=""></path></g><g id="g4337" transform="translate(312.0034,132.7803)"><path d="m 0,0 -0.004,-0.533 0.353,0.155 C 0.234,-0.25 0.116,-0.126 0,0" style="fill-opacity:1;fill-rule:nonzero;stroke:none" id="path4339" fill="#ffddce" data-original="#ffddce"></path></g><g id="g4341" transform="translate(237.2075,87.8496)"><path d="M 0,0 H 84.819" style="stroke-width:15;stroke-linecap:round;stroke-linejoin:round;stroke-miterlimit:10;stroke-dasharray:none;stroke-opacity:1" id="path4343" fill="none" stroke="#00cde5" stroke-width="15" stroke-linecap="round" stroke-linejoin="round" stroke-miterlimit="10" stroke-dasharray="none" stroke-opacity="" data-original="#000000" class=""></path></g><g id="g4345" transform="translate(78.2114,44.4082)"><path d="m 0,0 85.216,-31.718 c 9.221,-3.432 18.982,-5.19 28.822,-5.19 h 111.899 c 15.659,0 30.996,4.45 44.224,12.832 l 140.108,88.78 c 9.243,8.208 10.957,22.003 4.002,32.223 -7.608,11.182 -20.196,13.126 -34.046,6.577 l -136.41,-60.063 0.162,22.132 c -1.807,18.165 -15.793,32.744 -33.869,35.302 l -83.069,9.563 C 107.877,113.15 98.301,119.571 81.596,129.344 58.789,142.686 32.843,149.717 6.42,149.717 H 0" style="stroke-width:15;stroke-linecap:round;stroke-linejoin:round;stroke-miterlimit:10;stroke-dasharray:none;stroke-opacity:1" id="path4347" fill="none" stroke="#00cde5" stroke-width="15" stroke-linecap="round" stroke-linejoin="round" stroke-miterlimit="10" stroke-dasharray="none" stroke-opacity="" data-original="#000000" class=""></path></g><g id="g4349" transform="translate(78.2114,130.3838)"><path d="m 0,0 v -98.906 c 0,-7.878 -6.386,-14.265 -14.264,-14.265 h -34.427 c -7.878,0 -14.265,6.387 -14.265,14.265 V 75.758 c 0,7.878 6.387,14.263 14.265,14.263 h 34.427 C -6.386,90.021 0,83.636 0,75.758 V 35.06" style="stroke-width:15;stroke-linecap:round;stroke-linejoin:round;stroke-miterlimit:10;stroke-dasharray:none;stroke-opacity:1" id="path4351" fill="none" stroke="#00cde5" stroke-width="15" stroke-linecap="round" stroke-linejoin="round" stroke-miterlimit="10" stroke-dasharray="none" stroke-opacity="" data-original="#000000" class=""></path></g><g id="g4353" transform="translate(309.4282,322.5459)"><path d="m 0,0 c 0,0 -14.964,13.802 -38.03,6.854 -21.179,-6.38 -26.439,-35.36 -12.047,-46.648 8.264,-6.481 20.699,-11.811 37.458,-17.735 37.508,-13.258 23.642,-66.155 -14.511,-66.409 -14.89,-0.098 -21.85,0.846 -34.93,9.403" style="stroke-width:15;stroke-linecap:round;stroke-linejoin:round;stroke-miterlimit:10;stroke-dasharray:none;stroke-opacity:1" id="path4355" fill="none" stroke="#00cde5" stroke-width="15" stroke-linecap="round" stroke-linejoin="round" stroke-miterlimit="10" stroke-dasharray="none" stroke-opacity="" data-original="#000000" class=""></path></g><g id="g4357" transform="translate(282.2979,349.2109)"><path d="M 0,0 V -169.91" style="stroke-width:15;stroke-linecap:round;stroke-linejoin:round;stroke-miterlimit:10;stroke-dasharray:none;stroke-opacity:1" id="path4359" fill="none" stroke="#00cde5" stroke-width="15" stroke-linecap="round" stroke-linejoin="round" stroke-miterlimit="10" stroke-dasharray="none" stroke-opacity="" data-original="#000000" class=""></path></g></g></g></g></g></svg>