<svg xmlns="http://www.w3.org/2000/svg" version="1.1" xmlns:xlink="http://www.w3.org/1999/xlink" xmlns:svgjs="http://svgjs.com/svgjs" width="512" height="512" x="0" y="0" viewBox="0 0 682.66669 682.66669" style="enable-background:new 0 0 512 512" xml:space="preserve"><g><defs id="defs1495"><clipPath clipPathUnits="userSpaceOnUse" id="clipPath1505"><path d="M 0,512 H 512 V 0 H 0 Z" id="path1503" fill="#ffffff" data-original="#000000"></path></clipPath></defs><g id="g1497" transform="matrix(1.3333333,0,0,-1.3333333,0,682.66667)"><g id="g1499"><g id="g1501" clip-path="url(#clipPath1505)"><g id="g1507" transform="translate(359.3809,212.5693)"><path d="m 0,0 c 3.729,4.856 5.945,10.935 5.945,17.531 0,15.913 -12.9,28.813 -28.812,28.813 -15.913,0 -28.813,-12.9 -28.813,-28.813 0,-6.45 2.119,-12.406 5.701,-17.208" style="stroke-width:20;stroke-linecap:round;stroke-linejoin:round;stroke-miterlimit:10;stroke-dasharray:none;stroke-opacity:1" id="path1509" fill="none" stroke="#ffffff" stroke-width="20" stroke-linecap="round" stroke-linejoin="round" stroke-miterlimit="10" stroke-dasharray="none" stroke-opacity="" data-original="#000000"></path></g><g id="g1511" transform="translate(400.8354,396.3521)"><path d="M 0,0 V 51.625 H 52 V -42.241" style="stroke-width:20;stroke-linecap:round;stroke-linejoin:round;stroke-miterlimit:10;stroke-dasharray:none;stroke-opacity:1" id="path1513" fill="none" stroke="#ffffff" stroke-width="20" stroke-linecap="round" stroke-linejoin="round" stroke-miterlimit="10" stroke-dasharray="none" stroke-opacity="" data-original="#000000"></path></g><g id="g1515" transform="translate(158.9878,431.0391)"><path d="m 0,0 84.396,66.585 c 7.398,5.837 17.834,5.837 25.233,0 l 229.02,-180.689 c 4.245,-3.348 4.971,-9.503 1.622,-13.747 l -20.083,-25.455 c -3.349,-4.244 -9.503,-4.97 -13.748,-1.622 L 97.012,10.304 -112.416,-154.928 c -4.244,-3.348 -10.399,-2.622 -13.748,1.622 l -20.083,25.455 c -3.348,4.244 -2.622,10.399 1.622,13.747 l 73.98,58.368" style="stroke-width:20;stroke-linecap:round;stroke-linejoin:round;stroke-miterlimit:10;stroke-dasharray:none;stroke-opacity:1" id="path1517" fill="none" stroke="#ffffff" stroke-width="20" stroke-linecap="round" stroke-linejoin="round" stroke-miterlimit="10" stroke-dasharray="none" stroke-opacity="" data-original="#000000"></path></g><g id="g1519" transform="translate(46.5718,276.1113)"><path d="M 0,0 V -266.113" style="stroke-width:20;stroke-linecap:round;stroke-linejoin:round;stroke-miterlimit:10;stroke-dasharray:none;stroke-opacity:1" id="path1521" fill="none" stroke="#ffffff" stroke-width="20" stroke-linecap="round" stroke-linejoin="round" stroke-miterlimit="10" stroke-dasharray="none" stroke-opacity="" data-original="#000000"></path></g><g id="g1523" transform="translate(465.4282,276.1113)"><path d="M 0,0 V -266.113" style="stroke-width:20;stroke-linecap:round;stroke-linejoin:round;stroke-miterlimit:10;stroke-dasharray:none;stroke-opacity:1" id="path1525" fill="none" stroke="#ffffff" stroke-width="20" stroke-linecap="round" stroke-linejoin="round" stroke-miterlimit="10" stroke-dasharray="none" stroke-opacity="" data-original="#000000"></path></g><g id="g1527" transform="translate(28.2861,9.998)"><path d="M 0,0 H 455.428" style="stroke-width:20;stroke-linecap:round;stroke-linejoin:round;stroke-miterlimit:10;stroke-dasharray:none;stroke-opacity:1" id="path1529" fill="none" stroke="#ffffff" stroke-width="20" stroke-linecap="round" stroke-linejoin="round" stroke-miterlimit="10" stroke-dasharray="none" stroke-opacity="" data-original="#000000"></path></g><g id="g1531" transform="translate(142.5879,137.3203)"><path d="m 0,0 c -31.553,-3.766 -56.016,-30.619 -56.016,-63.186 v -64.136 h 194.325" style="stroke-width:20;stroke-linecap:round;stroke-linejoin:round;stroke-miterlimit:10;stroke-dasharray:none;stroke-opacity:1" id="path1533" fill="none" stroke="#ffffff" stroke-width="20" stroke-linecap="round" stroke-linejoin="round" stroke-miterlimit="10" stroke-dasharray="none" stroke-opacity="" data-original="#000000"></path></g><g id="g1535" transform="translate(266.0244,115.0225)"><path d="M 0,0 C -10.134,12.074 -24.669,20.33 -41.136,22.297" style="stroke-width:20;stroke-linecap:round;stroke-linejoin:round;stroke-miterlimit:10;stroke-dasharray:none;stroke-opacity:1" id="path1537" fill="none" stroke="#ffffff" stroke-width="20" stroke-linecap="round" stroke-linejoin="round" stroke-miterlimit="10" stroke-dasharray="none" stroke-opacity="" data-original="#000000"></path></g><g id="g1539" transform="translate(306.2368,128.9854)"><path d="m 0,0 h -1.093 c -32.348,0 -58.571,-26.223 -58.571,-58.572 v -60.415 h 178.855 v 60.415 C 119.191,-26.223 92.968,0 60.62,0 h -2.337" style="stroke-width:20;stroke-linecap:round;stroke-linejoin:round;stroke-miterlimit:10;stroke-dasharray:none;stroke-opacity:1" id="path1541" fill="none" stroke="#ffffff" stroke-width="20" stroke-linecap="round" stroke-linejoin="round" stroke-miterlimit="10" stroke-dasharray="none" stroke-opacity="" data-original="#000000"></path></g><g id="g1543" transform="translate(336.0005,107.9063)"><path d="m 0,0 -16.674,-34.467 -6.18,2.554 c -18.658,7.709 -31.72,24.868 -34.184,44.905" style="stroke-width:20;stroke-linecap:round;stroke-linejoin:round;stroke-miterlimit:10;stroke-dasharray:none;stroke-opacity:1" id="path1545" fill="none" stroke="#ffffff" stroke-width="20" stroke-linecap="round" stroke-linejoin="round" stroke-miterlimit="10" stroke-dasharray="none" stroke-opacity="" data-original="#000000"></path></g><g id="g1547" transform="translate(336.0005,107.9063)"><path d="m 0,0 16.674,-34.467 6.179,2.554 c 18.658,7.709 31.72,24.868 34.185,44.905" style="stroke-width:20;stroke-linecap:round;stroke-linejoin:round;stroke-miterlimit:10;stroke-dasharray:none;stroke-opacity:1" id="path1549" fill="none" stroke="#ffffff" stroke-width="20" stroke-linecap="round" stroke-linejoin="round" stroke-miterlimit="10" stroke-dasharray="none" stroke-opacity="" data-original="#000000"></path></g><g id="g1551" transform="translate(340.293,120.8984)"><path d="m 0,0 h -8.585 c -21.924,0 -39.697,17.772 -39.697,39.697 v 13.99 c 0,24.294 19.695,43.989 43.99,43.989 24.294,0 43.989,-19.695 43.989,-43.989 V 39.697 C 39.697,17.772 21.924,0 0,0 Z" style="stroke-width:20;stroke-linecap:round;stroke-linejoin:round;stroke-miterlimit:10;stroke-dasharray:none;stroke-opacity:1" id="path1553" fill="none" stroke="#ffffff" stroke-width="20" stroke-linecap="round" stroke-linejoin="round" stroke-miterlimit="10" stroke-dasharray="none" stroke-opacity="" data-original="#000000"></path></g><g id="g1555" transform="translate(292.0112,169.7363)"><path d="M 0,0 H 16.45 C 38.754,0 56.835,18.081 56.835,40.384" style="stroke-width:20;stroke-linecap:round;stroke-linejoin:round;stroke-miterlimit:10;stroke-dasharray:none;stroke-opacity:1" id="path1557" fill="none" stroke="#ffffff" stroke-width="20" stroke-linecap="round" stroke-linejoin="round" stroke-miterlimit="10" stroke-dasharray="none" stroke-opacity="" data-original="#000000"></path></g><g id="g1559" transform="translate(379.9897,169.7363)"><path d="M 0,0 H -16.451 C -26.843,0 -36.319,3.926 -43.476,10.375" style="stroke-width:20;stroke-linecap:round;stroke-linejoin:round;stroke-miterlimit:10;stroke-dasharray:none;stroke-opacity:1" id="path1561" fill="none" stroke="#ffffff" stroke-width="20" stroke-linecap="round" stroke-linejoin="round" stroke-miterlimit="10" stroke-dasharray="none" stroke-opacity="" data-original="#000000"></path></g><g id="g1563" transform="translate(135.2764,174.6729)"><path d="m 0,0 0.901,-15.199 c 1.196,-20.168 16.267,-36.367 35.599,-39.564 7.399,-4.2 16.516,-4.2 23.916,0 19.331,3.197 34.402,19.396 35.598,39.564 l 0.932,15.717" style="stroke-width:20;stroke-linecap:round;stroke-linejoin:round;stroke-miterlimit:10;stroke-dasharray:none;stroke-opacity:1" id="path1565" fill="none" stroke="#ffffff" stroke-width="20" stroke-linecap="round" stroke-linejoin="round" stroke-miterlimit="10" stroke-dasharray="none" stroke-opacity="" data-original="#000000"></path></g><g id="g1567" transform="translate(221.0449,215.4067)"><path d="m 0,0 c -7.336,7.389 -17.508,11.99 -28.808,11.99 h -17.006 c -11.257,0 -21.395,-4.567 -28.725,-11.907" style="stroke-width:20;stroke-linecap:round;stroke-linejoin:round;stroke-miterlimit:10;stroke-dasharray:none;stroke-opacity:1" id="path1569" fill="none" stroke="#ffffff" stroke-width="20" stroke-linecap="round" stroke-linejoin="round" stroke-miterlimit="10" stroke-dasharray="none" stroke-opacity="" data-original="#000000"></path></g><g id="g1571" transform="translate(256.2573,197.2695)"><path d="m 0,0 c 0,-11.767 -9.962,-21.305 -22.251,-21.305 -12.289,0 -22.251,9.538 -22.251,21.305 0,11.766 9.962,21.305 22.251,21.305 C -9.962,21.305 0,11.766 0,0 Z" style="stroke-width:20;stroke-linecap:round;stroke-linejoin:round;stroke-miterlimit:10;stroke-dasharray:none;stroke-opacity:1" id="path1573" fill="none" stroke="#ffffff" stroke-width="20" stroke-linecap="round" stroke-linejoin="round" stroke-miterlimit="10" stroke-dasharray="none" stroke-opacity="" data-original="#000000"></path></g><g id="g1575" transform="translate(111.2109,197.2695)"><path d="m 0,0 c 0,-11.767 9.962,-21.305 22.251,-21.305 12.289,0 22.251,9.538 22.251,21.305 0,11.766 -9.962,21.305 -22.251,21.305 C 9.962,21.305 0,11.766 0,0 Z" style="stroke-width:20;stroke-linecap:round;stroke-linejoin:round;stroke-miterlimit:10;stroke-dasharray:none;stroke-opacity:1" id="path1577" fill="none" stroke="#ffffff" stroke-width="20" stroke-linecap="round" stroke-linejoin="round" stroke-miterlimit="10" stroke-dasharray="none" stroke-opacity="" data-original="#000000"></path></g><g id="g1579" transform="translate(133.4614,133.9189)"><path d="M 0,0 C 12.543,-26.819 29.631,-51.088 50.273,-71.816 70.914,-51.088 88.002,-26.819 100.545,0" style="stroke-width:20;stroke-linecap:round;stroke-linejoin:round;stroke-miterlimit:10;stroke-dasharray:none;stroke-opacity:1" id="path1581" fill="none" stroke="#ffffff" stroke-width="20" stroke-linecap="round" stroke-linejoin="round" stroke-miterlimit="10" stroke-dasharray="none" stroke-opacity="" data-original="#000000"></path></g><g id="g1583" transform="translate(123.6665,403.1719)"><path d="M 0,0 V 0" style="stroke-width:20;stroke-linecap:round;stroke-linejoin:round;stroke-miterlimit:10;stroke-dasharray:none;stroke-opacity:1" id="path1585" fill="none" stroke="#ffffff" stroke-width="20" stroke-linecap="round" stroke-linejoin="round" stroke-miterlimit="10" stroke-dasharray="none" stroke-opacity="" data-original="#000000"></path></g></g></g></g></g></svg>