<svg xmlns="http://www.w3.org/2000/svg" version="1.1" xmlns:xlink="http://www.w3.org/1999/xlink" xmlns:svgjs="http://svgjs.com/svgjs" width="512" height="512" x="0" y="0" viewBox="0 0 682.66669 682.66669" style="enable-background:new 0 0 512 512" xml:space="preserve" class=""><g><defs id="defs1528"><clipPath clipPathUnits="userSpaceOnUse" id="clipPath1538"><path d="M 0,512 H 512 V 0 H 0 Z" id="path1536" fill="#00cde5" data-original="#000000"></path></clipPath></defs><g id="g1530" transform="matrix(1.3333333,0,0,-1.3333333,0,682.66667)"><g id="g1532"><g id="g1534" clip-path="url(#clipPath1538)"><g id="g1540" transform="translate(482.1904,277.54)"><path d="M 0,0 C -6.86,-12.97 -15.04,-25.83 -24.16,-38.43" style="stroke-width:15;stroke-linecap:round;stroke-linejoin:round;stroke-miterlimit:10;stroke-dasharray:none;stroke-opacity:1" id="path1542" fill="none" stroke="#00cde5" stroke-width="15" stroke-linecap="round" stroke-linejoin="round" stroke-miterlimit="10" stroke-dasharray="none" stroke-opacity="" data-original="#000000"></path></g><g id="g1544" transform="translate(48.6899,246.5898)"><path d="m 0,0 c -24.6,35.77 -41.19,73.36 -41.19,109.71 0,77.68 62.97,140.65 140.67,140.65 43.3,0 82.03,-19.58 107.83,-50.37 25.8,30.79 64.53,50.37 107.83,50.37 77.7,0 140.67,-62.97 140.67,-140.65 0,-15.42 -2.99,-31.08 -8.31,-46.72" style="stroke-width:15;stroke-linecap:round;stroke-linejoin:round;stroke-miterlimit:10;stroke-dasharray:none;stroke-opacity:1" id="path1546" fill="none" stroke="#00cde5" stroke-width="15" stroke-linecap="round" stroke-linejoin="round" stroke-miterlimit="10" stroke-dasharray="none" stroke-opacity="" data-original="#000000"></path></g><g id="g1548" transform="translate(227.8062,75.5952)"><path d="m 0,0 c 2.202,-1.576 4.293,-3.061 6.273,-4.455 13.163,-9.273 30.679,-9.273 43.842,0 1.979,1.394 4.07,2.879 6.272,4.455" style="stroke-width:15;stroke-linecap:round;stroke-linejoin:round;stroke-miterlimit:10;stroke-dasharray:none;stroke-opacity:1" id="path1550" fill="none" stroke="#00cde5" stroke-width="15" stroke-linecap="round" stroke-linejoin="round" stroke-miterlimit="10" stroke-dasharray="none" stroke-opacity="" data-original="#000000"></path></g><g id="g1552" transform="translate(143.0132,143.2861)"><path d="M 0,0 C 12.476,-11.132 24.8,-21.486 36.457,-30.901" style="stroke-width:15;stroke-linecap:round;stroke-linejoin:round;stroke-miterlimit:10;stroke-dasharray:none;stroke-opacity:1" id="path1554" fill="none" stroke="#00cde5" stroke-width="15" stroke-linecap="round" stroke-linejoin="round" stroke-miterlimit="10" stroke-dasharray="none" stroke-opacity="" data-original="#000000"></path></g><g id="g1556" transform="translate(332.5303,112.3853)"><path d="M 0,0 C 11.657,9.415 23.98,19.769 36.456,30.901" style="stroke-width:15;stroke-linecap:round;stroke-linejoin:round;stroke-miterlimit:10;stroke-dasharray:none;stroke-opacity:1" id="path1558" fill="none" stroke="#00cde5" stroke-width="15" stroke-linecap="round" stroke-linejoin="round" stroke-miterlimit="10" stroke-dasharray="none" stroke-opacity="" data-original="#000000"></path></g><g id="g1560" transform="translate(142.8599,121.3301)"><path d="m 0,0 49.89,-12.19 c 21.71,-5.3 36.99,-24.75 36.99,-47.1 v -47 h -222.24 v 47 c 0,19.81 12,37.33 29.84,44.76" style="stroke-width:15;stroke-linecap:round;stroke-linejoin:round;stroke-miterlimit:10;stroke-dasharray:none;stroke-opacity:1" id="path1562" fill="none" stroke="#00cde5" stroke-width="15" stroke-linecap="round" stroke-linejoin="round" stroke-miterlimit="10" stroke-dasharray="none" stroke-opacity="" data-original="#000000"></path></g><g id="g1564" transform="translate(94.3701,121.3301)"><path d="M 0,0 -23.18,-5.66" style="stroke-width:15;stroke-linecap:round;stroke-linejoin:round;stroke-miterlimit:10;stroke-dasharray:none;stroke-opacity:1" id="path1566" fill="none" stroke="#00cde5" stroke-width="15" stroke-linecap="round" stroke-linejoin="round" stroke-miterlimit="10" stroke-dasharray="none" stroke-opacity="" data-original="#000000"></path></g><g id="g1568" transform="translate(142.8618,142.54)"><path d="m 0,0 v -21.214 c 0,-13.389 -10.854,-24.244 -24.244,-24.244 -13.389,0 -24.244,10.855 -24.244,24.244 V 0" style="stroke-width:15;stroke-linecap:round;stroke-linejoin:round;stroke-miterlimit:10;stroke-dasharray:none;stroke-opacity:1" id="path1570" fill="none" stroke="#00cde5" stroke-width="15" stroke-linecap="round" stroke-linejoin="round" stroke-miterlimit="10" stroke-dasharray="none" stroke-opacity="" data-original="#000000"></path></g><g id="g1572" transform="translate(54.3516,246.5864)"><path d="m 0,0 c 3.515,32.376 30.941,57.58 64.266,57.58 17.86,0 34.023,-7.233 45.72,-18.931 C 120.118,28.517 126.907,15.031 128.533,0" style="stroke-width:15;stroke-linecap:round;stroke-linejoin:round;stroke-miterlimit:10;stroke-dasharray:none;stroke-opacity:1" id="path1574" fill="none" stroke="#00cde5" stroke-width="15" stroke-linecap="round" stroke-linejoin="round" stroke-miterlimit="10" stroke-dasharray="none" stroke-opacity="" data-original="#000000"></path></g><g id="g1576" transform="translate(53.9673,203.1494)"><path d="m 0,0 c 0,-35.709 28.941,-64.65 64.65,-64.65 35.71,0 64.651,28.941 64.651,64.65" style="stroke-width:15;stroke-linecap:round;stroke-linejoin:round;stroke-miterlimit:10;stroke-dasharray:none;stroke-opacity:1" id="path1578" fill="none" stroke="#00cde5" stroke-width="15" stroke-linecap="round" stroke-linejoin="round" stroke-miterlimit="10" stroke-dasharray="none" stroke-opacity="" data-original="#000000"></path></g><g id="g1580" transform="translate(192.3599,203.1494)"><path d="m 0,0 h -9.092 l -16.292,26.835 c -0.576,0.948 -0.88,2.036 -0.88,3.145 v 11.437 c 0,1.116 0.904,2.02 2.02,2.02 H 0 c 3.347,0 6.061,-2.713 6.061,-6.061 V 6.061 C 6.061,2.714 3.347,0 0,0 Z" style="stroke-width:15;stroke-linecap:round;stroke-linejoin:round;stroke-miterlimit:10;stroke-dasharray:none;stroke-opacity:1" id="path1582" fill="none" stroke="#00cde5" stroke-width="15" stroke-linecap="round" stroke-linejoin="round" stroke-miterlimit="10" stroke-dasharray="none" stroke-opacity="" data-original="#000000"></path></g><g id="g1584" transform="translate(44.876,203.1494)"><path d="m 0,0 h 9.091 l 16.293,26.835 c 0.576,0.948 0.88,2.036 0.88,3.145 v 11.437 c 0,1.116 -0.904,2.02 -2.02,2.02 L 0,43.437 c -3.347,0 -6.061,-2.713 -6.061,-6.061 V 6.061 C -6.061,2.714 -3.347,0 0,0 Z" style="stroke-width:15;stroke-linecap:round;stroke-linejoin:round;stroke-miterlimit:10;stroke-dasharray:none;stroke-opacity:1" id="path1586" fill="none" stroke="#00cde5" stroke-width="15" stroke-linecap="round" stroke-linejoin="round" stroke-miterlimit="10" stroke-dasharray="none" stroke-opacity="" data-original="#000000"></path></g><g id="g1588" transform="translate(56.998,40.5132)"><path d="M 0,0 V -25.471" style="stroke-width:15;stroke-linecap:round;stroke-linejoin:round;stroke-miterlimit:10;stroke-dasharray:none;stroke-opacity:1" id="path1590" fill="none" stroke="#00cde5" stroke-width="15" stroke-linecap="round" stroke-linejoin="round" stroke-miterlimit="10" stroke-dasharray="none" stroke-opacity="" data-original="#000000"></path></g><g id="g1592" transform="translate(180.2378,40.5132)"><path d="M 0,0 V -25.471" style="stroke-width:15;stroke-linecap:round;stroke-linejoin:round;stroke-miterlimit:10;stroke-dasharray:none;stroke-opacity:1" id="path1594" fill="none" stroke="#00cde5" stroke-width="15" stroke-linecap="round" stroke-linejoin="round" stroke-miterlimit="10" stroke-dasharray="none" stroke-opacity="" data-original="#000000"></path></g><g id="g1596" transform="translate(417.6299,121.3301)"><path d="m 0,0 49.88,-12.19 c 21.71,-5.3 36.99,-24.75 36.99,-47.1 v -47 H 14.19" style="stroke-width:15;stroke-linecap:round;stroke-linejoin:round;stroke-miterlimit:10;stroke-dasharray:none;stroke-opacity:1" id="path1598" fill="none" stroke="#00cde5" stroke-width="15" stroke-linecap="round" stroke-linejoin="round" stroke-miterlimit="10" stroke-dasharray="none" stroke-opacity="" data-original="#000000"></path></g><g id="g1600" transform="translate(369.1396,121.3301)"><path d="m 0,0 -49.89,-12.19 c -21.71,-5.3 -36.99,-24.75 -36.99,-47.1 v -47 H 27.681" style="stroke-width:15;stroke-linecap:round;stroke-linejoin:round;stroke-miterlimit:10;stroke-dasharray:none;stroke-opacity:1" id="path1602" fill="none" stroke="#00cde5" stroke-width="15" stroke-linecap="round" stroke-linejoin="round" stroke-miterlimit="10" stroke-dasharray="none" stroke-opacity="" data-original="#000000"></path></g><g id="g1604" transform="translate(417.626,142.54)"><path d="m 0,0 v -21.214 c 0,-13.389 -10.854,-24.244 -24.244,-24.244 -13.39,0 -24.243,10.855 -24.243,24.244 V 0" style="stroke-width:15;stroke-linecap:round;stroke-linejoin:round;stroke-miterlimit:10;stroke-dasharray:none;stroke-opacity:1" id="path1606" fill="none" stroke="#00cde5" stroke-width="15" stroke-linecap="round" stroke-linejoin="round" stroke-miterlimit="10" stroke-dasharray="none" stroke-opacity="" data-original="#000000"></path></g><g id="g1608" transform="translate(458.0322,203.1494)"><path d="m 0,0 c 0,-35.705 -28.944,-64.65 -64.65,-64.65 -35.705,0 -64.651,28.945 -64.651,64.65" style="stroke-width:15;stroke-linecap:round;stroke-linejoin:round;stroke-miterlimit:10;stroke-dasharray:none;stroke-opacity:1" id="path1610" fill="none" stroke="#00cde5" stroke-width="15" stroke-linecap="round" stroke-linejoin="round" stroke-miterlimit="10" stroke-dasharray="none" stroke-opacity="" data-original="#000000"></path></g><g id="g1612" transform="translate(331.7617,40.5132)"><path d="M 0,0 V -25.471" style="stroke-width:15;stroke-linecap:round;stroke-linejoin:round;stroke-miterlimit:10;stroke-dasharray:none;stroke-opacity:1" id="path1614" fill="none" stroke="#00cde5" stroke-width="15" stroke-linecap="round" stroke-linejoin="round" stroke-miterlimit="10" stroke-dasharray="none" stroke-opacity="" data-original="#000000"></path></g><g id="g1616" transform="translate(455.002,40.5132)"><path d="M 0,0 V -25.471" style="stroke-width:15;stroke-linecap:round;stroke-linejoin:round;stroke-miterlimit:10;stroke-dasharray:none;stroke-opacity:1" id="path1618" fill="none" stroke="#00cde5" stroke-width="15" stroke-linecap="round" stroke-linejoin="round" stroke-miterlimit="10" stroke-dasharray="none" stroke-opacity="" data-original="#000000"></path></g><g id="g1620" transform="translate(435.9297,298.2896)"><path d="m 0,0 v 0.01 c 0.324,2.111 0.485,4.263 0.485,6.455 0,23.436 -19.001,42.427 -42.426,42.427 -23.436,0 -42.427,-18.991 -42.427,-42.427 0,-1.869 0.121,-3.717 0.363,-5.526" style="stroke-width:15;stroke-linecap:round;stroke-linejoin:round;stroke-miterlimit:10;stroke-dasharray:none;stroke-opacity:1" id="path1622" fill="none" stroke="#00cde5" stroke-width="15" stroke-linecap="round" stroke-linejoin="round" stroke-miterlimit="10" stroke-dasharray="none" stroke-opacity="" data-original="#000000"></path></g><g id="g1624" transform="translate(393.3818,314.2676)"><path d="m 0,0 v 0 c -35.705,0 -64.65,-28.945 -64.65,-64.65 v -46.468 l 11.047,18.196 c 71.22,0.56 91.607,25.241 91.607,25.241 L 64.65,-111.118 V -64.65 C 64.65,-28.945 35.706,0 0,0 Z" style="stroke-width:15;stroke-linecap:round;stroke-linejoin:round;stroke-miterlimit:10;stroke-dasharray:none;stroke-opacity:1" id="path1626" fill="none" stroke="#00cde5" stroke-width="15" stroke-linecap="round" stroke-linejoin="round" stroke-miterlimit="10" stroke-dasharray="none" stroke-opacity="" data-original="#000000"></path></g></g></g></g></g></svg>