<svg xmlns="http://www.w3.org/2000/svg" version="1.1" xmlns:xlink="http://www.w3.org/1999/xlink" xmlns:svgjs="http://svgjs.com/svgjs" width="512" height="512" x="0" y="0" viewBox="0 0 64 64" style="enable-background:new 0 0 512 512" xml:space="preserve" class=""><g><g><path d="m19.447 18.45-.895-1.789c-1.51.754-3.095.004-3.111-.003l-.889 1.792c.066.033 1.122.549 2.528.549.726 0 1.544-.137 2.367-.549z" fill="#ffffff" data-original="#000000" class=""></path><path d="m21.441 16.658-.889 1.792c.066.033 1.122.549 2.528.549.725 0 1.543-.137 2.367-.549l-.895-1.789c-1.51.755-3.095.005-3.111-.003z" fill="#ffffff" data-original="#000000" class=""></path><path d="m17.555 23.168-1.109 1.664c1.196.797 2.384 1.063 3.438 1.063 2.042 0 3.576-.999 3.672-1.063l-1.109-1.664c-.026.017-2.474 1.613-4.892 0z" fill="#ffffff" data-original="#000000" class=""></path><path d="m60.726 48.905c1.518-3.777.876-8.854-1.545-12.863.14-.329.212-.716.202-1.134-.02-.803-.336-1.446-.936-1.803l-1.934-.967c.701-.633 1.487-1.671 1.487-3.138 0-1.238-.323-2.165-.647-2.783.734-.711 1.647-2.033 1.647-4.217 0-2.402-1.104-3.762-1.861-4.412.661-2.872.227-5.421-1.272-7.407-2.034-2.696-5.893-4.181-10.867-4.181-8.439 0-11.621 1.161-14.8 5.4-2.378 3.17-1.062 6.549.367 8.462-.719.728-1.567 2.033-1.567 4.138 0 2.459 1.158 3.826 1.915 4.457-.118 1 .006 1.84.33 2.543h-10.245v-1c5.537 0 7-5.233 7-8v-10.408c.643-.729 1-1.61 1-2.592 0-5.838-10.456-6.951-10.934-6.998-.332-.022-8.149-.49-12.784 3.847-2.178 2.038-3.282 4.78-3.282 8.151 0 10.446 6.572 13.16 9 13.806v3.49c-1.484.58-4.902 2.214-6.594 5.473-1.16 2.234-1.279 4.773-.354 7.547.412 1.237 1.072 2.356 1.948 3.364v15.32h21v-9.753c1.953-.163 3.938-.45 5.917-.86-.904 1.816-1.917 4.9-1.917 9.613v1h28v-1c0-.202-.023-4.722-1.772-8.729 1.57-1.074 2.763-2.535 3.498-4.366zm-6.109-5.905c-.33-2.566-1.727-4.479-1.817-4.6l-1.6 1.2c.026.035 2.609 3.545.905 6.953-.484.969-1.178 1.579-2.12 1.866-1.634.497-3.639-.064-4.985-.593v-8.941c1.325-.291 2.31-1.167 2.759-2.518.033-.1.128-.153.231-.15 1.217.129 2.226-.105 2.968-.654.156.093.309.178.446.252l3.083 1.786c.446.268.944.402 1.444.402.43 0 .86-.1 1.259-.299l.475-.303c.996 1.751 1.609 3.691 1.807 5.6h-4.855zm-15.059 1.73c-.106-.14-.226-.269-.363-.377-.421-.328-.945-.445-1.511-.302l-.803.267c-.204-1.196-.314-3.471.826-4.612l-1.414-1.414c-1.305 1.305-1.569 3.217-1.536 4.707h-.757c-1.412 0-2.547.627-2.92 1.604l-.238.476c-.128-3.005.173-9.065 4.251-11.997.233-.003.438-.016.611-.034.038.44.156.906.402 1.397.688 1.376 2.132 1.999 4.095 1.789.428 1.427 1.429 2.348 2.8 2.648v6.748c-.094-.113-.18-.226-.293-.34-.932-.928-2.245-.807-3.15-.56zm-26.314 5.206 3.131-4.697c6.205 3.308 14.248 2.792 14.696 2.758l.568-.04 1.255-2.51.053-.127c.04-.082.378-.32 1.053-.32v2.388l4.001-1.337.057 2.876c-8.69 2.942-18.29 3.28-24.814 1.009zm13.756-8.936h1.967c-.247 2.061-.174 3.905-.081 5.029-.549-.011-1.183-.037-1.886-.089zm19.371-27.071c.304.02.644.066.991.161 1.073.292 1.827.928 2.284 1.925-.05-.002-.096-.015-.146-.015-2.31 0-4.197 1.756-4.449 4h-2.101c-.252-2.244-2.139-4-4.449-4-.13 0-.253.028-.38.038.129-.637.399-1.436.982-1.918 1.978.814 4.647 2.042 5.191 2.586l.706.708.707-.707c.428-.428.921-1.408.664-2.778zm3.129 9.071c-1.378 0-2.5-1.122-2.5-2.5s1.122-2.5 2.5-2.5 2.5 1.122 2.5 2.5-1.122 2.5-2.5 2.5zm-11-5c1.378 0 2.5 1.122 2.5 2.5s-1.122 2.5-2.5 2.5-2.5-1.122-2.5-2.5 1.122-2.5 2.5-2.5zm-1.968 6.527c.597.293 1.259.473 1.968.473 1.953 0 3.602-1.258 4.224-3h2.553c.621 1.742 2.271 3 4.224 3 .708 0 1.37-.179 1.966-.472.211.862.329 2.085-.306 3.113-.955 1.543-3.431 2.359-7.161 2.359-3.723 0-6.197-.813-7.154-2.35-.645-1.034-.527-2.259-.314-3.123zm13.449 8.155c-.331.49-.375.941-.329 1.259.003.02.011.037.014.056-.344.209-.823.295-1.467.23-1.03-.117-2.012.525-2.339 1.509-.286.863-.877 1.264-1.86 1.264-1.011 0-1.61-.425-1.884-1.338-.289-.966-1.22-1.569-2.207-1.448-1.048.136-1.728-.087-2.015-.661-.458-.917-.064-1.659.484-2.385.202.076.43.134.647.199.17 1.431 1.345 3.633 4.975 3.633s4.805-2.202 4.975-3.634c.211-.063.432-.12.629-.193.235.486.34 1.097.377 1.509zm-8.731-.853c.846.108 1.754.171 2.75.171.995 0 1.902-.063 2.747-.171-.323.551-1.06 1.171-2.747 1.171-1.691 0-2.427-.612-2.75-1.171zm16.104 3.398-1.1.706c-.239.106-.513.088-.752-.056l-3.021-1.754-.125-.067c-.147-.08-.442-.24-.623-.375l1.001-1.001c.176-.022.547.044.71.153l3.922 1.967c.027.122.021.315-.012.427zm-24.647-15.934c-.138-.138-3.358-3.424-.907-6.693 2.741-3.654 5.455-4.6 13.2-4.6 4.331 0 7.623 1.202 9.27 3.385 1.242 1.646 1.5 3.779.769 6.34l-.207.781.708.382c.059.032 1.46.814 1.46 3.112s-1.401 3.08-1.447 3.105l-1.186.612.915.979c.029.031.718.785.718 2.304 0 1.342-1.438 2.101-1.447 2.105l.035.071-.093-.047c-.407-.253-.963-.419-1.504-.449-.521-.023-.964.085-1.315.298-.079-.246-.183-.492-.305-.734.614-.438 1.119-.951 1.491-1.552 1.295-2.096.672-4.487.274-5.563.538-.741.864-1.645.864-2.629 0-1.571-.812-2.953-2.036-3.758-.631-3.034-2.56-4.168-4.076-4.582-1.586-.432-3.023-.152-3.084-.141l-1.284.257.585 1.171c.19.38.283.698.319.957-1.731-.985-4.397-2.07-5.053-2.333l-.417-.167-.402.201c-2.175 1.088-2.496 3.82-2.544 4.651-1.208.808-2.008 2.184-2.008 3.744 0 .984.326 1.888.864 2.629-.398 1.076-1.021 3.468.274 5.563.339.549.78 1.03 1.322 1.443-.709.253-1.353.561-1.94.914-.457-.056-.92-.195-1.224-.501-.434-.438-.541-1.229-.316-2.353l.131-.733-.651-.351c-.059-.031-1.46-.813-1.46-3.111s1.401-3.08 1.447-3.105l1.241-.621zm-11.707 8.707c-1.305 0-2.455-.286-3.515-.875l-.971 1.749c.787.437 1.614.729 2.485.911v1.829c-.477.497-1.702 1.608-3.148 1.608-.003 0-.006 0-.009 0-.976-.004-1.931-.543-2.843-1.592v-9.63h-1c-.334 0-2-.096-2-2 0-1.827 1.537-1.993 2-2h1v-4.619c1.705.578 3.565.613 3.91.615.667.06 5.74.454 9.09-1.012v9.013c0 .246-.083 6.003-4.999 6.003zm-17-14c0-2.792.889-5.042 2.643-6.686 3.995-3.743 11.221-3.322 11.257-3.319 2.531.256 9.1 1.653 9.1 5.005 0 .585-.209 1.049-.659 1.46-1.943 1.775-7.337 1.717-9.34 1.54-1.632-.003-5.001-.496-5.001-2 0-.378.118-.458.169-.493.578-.394 2.38-.008 3.46.421l.742-1.857c-.593-.237-3.637-1.362-5.324-.221-.477.324-1.047.96-1.047 2.15 0 .978.397 1.716 1 2.274v3.852c-1.445.357-3 1.508-3 3.874s1.555 3.517 3 3.874v1.881c-2.228-.685-7-3.156-7-11.755zm2.176 23.701c1.358-2.627 4.262-4.025 5.516-4.526 1.259 1.359 2.656 2.048 4.16 2.048 2.187 0 3.897-1.501 4.593-2.223h11.735c-1.538 1.741-2.406 3.896-2.873 6h-2.307v-2h-2v8.733c-4.21-.56-9.555-2.108-12.152-6.263l-1.696 1.061c.936 1.497 2.153 2.694 3.521 3.658l-3.319 4.978c-.071-.034-.15-.063-.22-.098-2.696-1.34-4.441-3.151-5.185-5.385-.746-2.237-.669-4.249.227-5.983zm18.824 23.299h-17v-11.491c.675.49 1.421.942 2.244 1.351 3.422 1.7 7.976 2.55 12.94 2.55.6 0 1.206-.014 1.816-.039zm31.956 0h-23.939c.22-6.459 2.518-9.103 2.681-9.282.928-.248 1.851-.519 2.763-.823.939.999 4.687 4.518 10.891 4.518 1.198 0 2.487-.132 3.865-.438.803-.179 1.547-.43 2.245-.732 1.059 2.519 1.393 5.306 1.494 6.757zm-4.173-7.977c-7.567 1.684-12.023-2.594-12.866-3.499.048-.168.083-.342.083-.524v-2.313c.491-.142 1.064-.207 1.293.02.667.667.706 1.29.707 1.293v.581l.504.288c.15.085 3.09 1.738 6.097 1.738.66 0 1.323-.08 1.96-.273 1.478-.448 2.6-1.419 3.333-2.887.414-.829.641-1.653.739-2.447h4.89c-.063 1.119-.265 2.194-.653 3.159-1.013 2.523-3.118 4.205-6.087 4.864z" fill="#ffffff" data-original="#000000" class=""></path><path d="m47.555 27.832-1.109-1.664c-2.389 1.594-4.793.063-4.895-.003l-1.105 1.667c.096.064 1.63 1.063 3.672 1.063 1.052 0 2.241-.266 3.437-1.063z" fill="#ffffff" data-original="#000000" class=""></path></g></g></svg>