<svg width="512" height="512" viewBox="0 0 512 512" fill="none" xmlns="http://www.w3.org/2000/svg">
<path d="M155.576 147.6L148.416 133.288C136.336 139.32 123.656 133.32 123.528 133.264L116.416 147.6C116.944 147.864 125.392 151.992 136.64 151.992C142.448 151.992 148.992 150.896 155.576 147.6Z" fill="#00CDE5"/>
<path d="M171.528 133.264L164.416 147.6C164.944 147.864 173.392 151.992 184.64 151.992C190.44 151.992 196.984 150.896 203.576 147.6L196.416 133.288C184.336 139.328 171.656 133.328 171.528 133.264Z" fill="#00CDE5"/>
<path d="M140.44 185.344L131.568 198.656C141.136 205.032 150.64 207.16 159.072 207.16C175.408 207.16 187.68 199.168 188.448 198.656L179.576 185.344C179.368 185.48 159.784 198.248 140.44 185.344Z" fill="#00CDE5"/>
<path d="M485.808 391.24C497.952 361.024 492.816 320.408 473.448 288.336C474.568 285.704 475.144 282.608 475.064 279.264C474.904 272.84 472.376 267.696 467.576 264.84L452.104 257.104C457.712 252.04 464 243.736 464 232C464 222.096 461.416 214.68 458.824 209.736C464.696 204.048 472 193.472 472 176C472 156.784 463.168 145.904 457.112 140.704C462.4 117.728 458.928 97.336 446.936 81.448C430.664 59.88 399.792 48 360 48C292.488 48 267.032 57.288 241.6 91.2C222.576 116.56 233.104 143.592 244.536 158.896C238.784 164.72 232 175.16 232 192C232 211.672 241.264 222.608 247.32 227.656C246.376 235.656 247.368 242.376 249.96 248H168V240C212.296 240 224 198.136 224 176V92.736C229.144 86.904 232 79.856 232 72C232 25.296 148.352 16.392 144.528 16.016C141.872 15.84 79.336 12.096 42.256 46.792C24.832 63.096 16 85.032 16 112C16 195.568 68.576 217.28 88 222.448V250.368C76.128 255.008 48.784 268.08 35.248 294.152C25.968 312.024 25.016 332.336 32.416 354.528C35.712 364.424 40.992 373.376 48 381.44V504H216V425.976C231.624 424.672 247.504 422.376 263.336 419.096C256.104 433.624 248 458.296 248 496V504H472V496C472 494.384 471.816 458.224 457.824 426.168C470.384 417.576 479.928 405.888 485.808 391.24ZM436.936 344C434.296 323.472 423.12 308.168 422.4 307.2L409.6 316.8C409.808 317.08 430.472 345.16 416.84 372.424C412.968 380.176 407.416 385.056 399.88 387.352C386.808 391.328 370.768 386.84 360 382.608V311.08C370.6 308.752 378.48 301.744 382.072 290.936C382.336 290.136 383.096 289.712 383.92 289.736C393.656 290.768 401.728 288.896 407.664 284.504C408.912 285.248 410.136 285.928 411.232 286.52L435.896 300.808C439.464 302.952 443.448 304.024 447.448 304.024C450.888 304.024 454.328 303.224 457.52 301.632L461.32 299.208C469.288 313.216 474.192 328.736 475.776 344.008L436.936 344ZM316.464 357.84C315.616 356.72 314.656 355.688 313.56 354.824C310.192 352.2 306 351.264 301.472 352.408L295.048 354.544C293.416 344.976 292.536 326.776 301.656 317.648L290.344 306.336C279.904 316.776 277.792 332.072 278.056 343.992H272C260.704 343.992 251.624 349.008 248.64 356.824L246.736 360.632C245.712 336.592 248.12 288.112 280.744 264.656C282.608 264.632 284.248 264.528 285.632 264.384C285.936 267.904 286.88 271.632 288.848 275.56C294.352 286.568 305.904 291.552 321.608 289.872C325.032 301.288 333.04 308.656 344.008 311.056V365.04C343.256 364.136 342.568 363.232 341.664 362.32C334.208 354.896 323.704 355.864 316.464 357.84ZM105.952 399.488L131 361.912C180.64 388.376 244.984 384.248 248.568 383.976L253.112 383.656L263.152 363.576L263.576 362.56C263.896 361.904 266.6 360 272 360V379.104L304.008 368.408L304.464 391.416C234.944 414.952 158.144 417.656 105.952 399.488ZM216 328H231.736C229.76 344.488 230.344 359.24 231.088 368.232C226.696 368.144 221.624 367.936 216 367.52V328ZM370.968 111.432C373.4 111.592 376.12 111.96 378.896 112.72C387.48 115.056 393.512 120.144 397.168 128.12C396.768 128.104 396.4 128 396 128C377.52 128 362.424 142.048 360.408 160H343.6C341.584 142.048 326.488 128 308.008 128C306.968 128 305.984 128.224 304.968 128.304C306 123.208 308.16 116.816 312.824 112.96C328.648 119.472 350 129.296 354.352 133.648L360 139.312L365.656 133.656C369.08 130.232 373.024 122.392 370.968 111.432ZM396 184C384.976 184 376 175.024 376 164C376 152.976 384.976 144 396 144C407.024 144 416 152.976 416 164C416 175.024 407.024 184 396 184ZM308 144C319.024 144 328 152.976 328 164C328 175.024 319.024 184 308 184C296.976 184 288 175.024 288 164C288 152.976 296.976 144 308 144ZM292.256 196.216C297.032 198.56 302.328 200 308 200C323.624 200 336.816 189.936 341.792 176H362.216C367.184 189.936 380.384 200 396.008 200C401.672 200 406.968 198.568 411.736 196.224C413.424 203.12 414.368 212.904 409.288 221.128C401.648 233.472 381.84 240 352 240C322.216 240 302.424 233.496 294.768 221.2C289.608 212.928 290.552 203.128 292.256 196.216ZM399.848 261.456C397.2 265.376 396.848 268.984 397.216 271.528C397.24 271.688 397.304 271.824 397.328 271.976C394.576 273.648 390.744 274.336 385.592 273.816C377.352 272.88 369.496 278.016 366.88 285.888C364.592 292.792 359.864 296 352 296C343.912 296 339.12 292.6 336.928 285.296C334.616 277.568 327.168 272.744 319.272 273.712C310.888 274.8 305.448 273.016 303.152 268.424C299.488 261.088 302.64 255.152 307.024 249.344C308.64 249.952 310.464 250.416 312.2 250.936C313.56 262.384 322.96 280 352 280C381.04 280 390.44 262.384 391.8 250.928C393.488 250.424 395.256 249.968 396.832 249.384C398.712 253.272 399.552 258.16 399.848 261.456ZM330 254.632C336.768 255.496 344.032 256 352 256C359.96 256 367.216 255.496 373.976 254.632C371.392 259.04 365.496 264 352 264C338.472 264 332.584 259.104 330 254.632ZM458.832 281.816L450.032 287.464C448.12 288.312 445.928 288.168 444.016 287.016L419.848 272.984L418.848 272.448C417.672 271.808 415.312 270.528 413.864 269.448L421.872 261.44C423.28 261.264 426.248 261.792 427.552 262.664L458.928 278.4C459.144 279.376 459.096 280.92 458.832 281.816ZM261.656 154.344C260.552 153.24 234.792 126.952 254.4 100.8C276.328 71.568 298.04 64 360 64C394.648 64 420.984 73.616 434.16 91.08C444.096 104.248 446.16 121.312 440.312 141.8L438.656 148.048L444.32 151.104C444.792 151.36 456 157.616 456 176C456 194.384 444.792 200.64 444.424 200.84L434.936 205.736L442.256 213.568C442.488 213.816 448 219.848 448 232C448 242.736 436.496 248.808 436.424 248.84L436.704 249.408L435.96 249.032C432.704 247.008 428.256 245.68 423.928 245.44C419.76 245.256 416.216 246.12 413.408 247.824C412.776 245.856 411.944 243.888 410.968 241.952C415.88 238.448 419.92 234.344 422.896 229.536C433.256 212.768 428.272 193.64 425.088 185.032C429.392 179.104 432 171.872 432 164C432 151.432 425.504 140.376 415.712 133.936C410.664 109.664 395.232 100.592 383.104 97.28C370.416 93.824 358.92 96.064 358.432 96.152L348.16 98.208L352.84 107.576C354.36 110.616 355.104 113.16 355.392 115.232C341.544 107.352 320.216 98.672 314.968 96.568L311.632 95.232L308.416 96.84C291.016 105.544 288.448 127.4 288.064 134.048C278.4 140.512 272 151.52 272 164C272 171.872 274.608 179.104 278.912 185.032C275.728 193.64 270.744 212.776 281.104 229.536C283.816 233.928 287.344 237.776 291.68 241.08C286.008 243.104 280.856 245.568 276.16 248.392C272.504 247.944 268.8 246.832 266.368 244.384C262.896 240.88 262.04 234.552 263.84 225.56L264.888 219.696L259.68 216.888C259.208 216.64 248 210.384 248 192C248 173.616 259.208 167.36 259.576 167.16L269.504 162.192L261.656 154.344ZM168 224C157.56 224 148.36 221.712 139.88 217L132.112 230.992C138.408 234.488 145.024 236.824 151.992 238.28V252.912C148.176 256.888 138.376 265.776 126.808 265.776C126.784 265.776 126.76 265.776 126.736 265.776C118.928 265.744 111.288 261.432 103.992 253.04V176H95.992C93.32 176 79.992 175.232 79.992 160C79.992 145.384 92.288 144.056 95.992 144H103.992V107.048C117.632 111.672 132.512 111.952 135.272 111.968C140.608 112.448 181.192 115.6 207.992 103.872V175.976C207.992 177.944 207.328 224 168 224ZM32 112C32 89.664 39.112 71.664 53.144 58.512C85.104 28.568 142.912 31.936 143.2 31.96C163.448 34.008 216 45.184 216 72C216 76.68 214.328 80.392 210.728 83.68C195.184 97.88 152.032 97.416 136.008 96C122.952 95.976 96 92.032 96 80C96 76.976 96.944 76.336 97.352 76.056C101.976 72.904 116.392 75.992 125.032 79.424L130.968 64.568C126.224 62.672 101.872 53.672 88.376 62.8C84.56 65.392 80 70.48 80 80C80 87.824 83.176 93.728 88 98.192V129.008C76.44 131.864 64 141.072 64 160C64 178.928 76.44 188.136 88 190.992V206.04C70.176 200.56 32 180.792 32 112ZM49.408 301.608C60.272 280.592 83.504 269.408 93.536 265.4C103.608 276.272 114.784 281.784 126.816 281.784C144.312 281.784 157.992 269.776 163.56 264H257.44C245.136 277.928 238.192 295.168 234.456 312H216V296H200V365.864C166.32 361.384 123.56 349 102.784 315.76L89.216 324.248C96.704 336.224 106.44 345.8 117.384 353.512L90.832 393.336C90.264 393.064 89.632 392.832 89.072 392.552C67.504 381.832 53.544 367.344 47.592 349.472C41.624 331.576 42.24 315.48 49.408 301.608ZM200 488H64V396.072C69.4 399.992 75.368 403.608 81.952 406.88C109.328 420.48 145.76 427.28 185.472 427.28C190.272 427.28 195.12 427.168 200 426.968V488ZM455.648 488H264.136C265.896 436.328 284.28 415.176 285.584 413.744C293.008 411.76 300.392 409.592 307.688 407.16C315.2 415.152 345.184 443.304 394.816 443.304C404.4 443.304 414.712 442.248 425.736 439.8C432.16 438.368 438.112 436.36 443.696 433.944C452.168 454.096 454.84 476.392 455.648 488ZM422.264 424.184C361.728 437.656 326.08 403.432 319.336 396.192C319.72 394.848 320 393.456 320 392V373.496C323.928 372.36 328.512 371.84 330.344 373.656C335.68 378.992 335.992 383.976 336 384V388.648L340.032 390.952C341.232 391.632 364.752 404.856 388.808 404.856C394.088 404.856 399.392 404.216 404.488 402.672C416.312 399.088 425.288 391.32 431.152 379.576C434.464 372.944 436.28 366.352 437.064 360H476.184C475.68 368.952 474.064 377.552 470.96 385.272C462.856 405.456 446.016 418.912 422.264 424.184Z" fill="#00CDE5"/>
<path d="M380.44 222.656L371.568 209.344C352.456 222.096 333.224 209.848 332.408 209.32L323.568 222.656C324.336 223.168 336.608 231.16 352.944 231.16C361.36 231.16 370.872 229.032 380.44 222.656Z" fill="#00CDE5"/>
</svg>
