<svg xmlns="http://www.w3.org/2000/svg" version="1.1" xmlns:xlink="http://www.w3.org/1999/xlink" xmlns:svgjs="http://svgjs.com/svgjs" width="512" height="512" x="0" y="0" viewBox="0 0 682.66669 682.66669" style="enable-background:new 0 0 512 512" xml:space="preserve" class=""><g><defs id="defs3547"><clipPath clipPathUnits="userSpaceOnUse" id="clipPath3557"><path d="M 0,512 H 512 V 0 H 0 Z" id="path3555" fill="#00cde5" data-original="#000000"></path></clipPath></defs><g id="g3549" transform="matrix(1.3333333,0,0,-1.3333333,0,682.66667)"><g id="g3551"><g id="g3553" clip-path="url(#clipPath3557)"><g id="g3559" transform="translate(181.8867,389.4385)"><path d="m 0,0 c 32.363,4.677 61.726,7.795 103.376,40.903 7.447,-17.461 23.587,-29.054 44.822,-41.385 v -18.992 c 0,-40.79 -33.326,-74.181 -74.098,-74.181 -40.746,0 -74.1,33.391 -74.1,74.181 z" style="stroke-width:20;stroke-linecap:round;stroke-linejoin:round;stroke-miterlimit:10;stroke-dasharray:none;stroke-opacity:1" id="path3561" fill="none" stroke="#00cde5" stroke-width="20" stroke-linecap="round" stroke-linejoin="round" stroke-miterlimit="10" stroke-dasharray="none" stroke-opacity="" data-original="#000000" class=""></path></g><g id="g3563" transform="translate(365.7051,392.2158)"><path d="M 0,0 C 0,60.377 -49.353,109.784 -109.663,109.784 -169.973,109.784 -219.325,60.377 -219.325,0 V -136.74 M 0,-136.882 V -89.8" style="stroke-width:20;stroke-linecap:round;stroke-linejoin:round;stroke-miterlimit:10;stroke-dasharray:none;stroke-opacity:1" id="path3565" fill="none" stroke="#00cde5" stroke-width="20" stroke-linecap="round" stroke-linejoin="round" stroke-miterlimit="10" stroke-dasharray="none" stroke-opacity="" data-original="#000000" class=""></path></g><g id="g3567" transform="translate(329.5752,272.9932)"><path d="m 0,0 c -18.206,-20.153 -44.538,-32.824 -73.815,-32.824 -29.278,0 -55.582,12.671 -73.789,32.824" style="stroke-width:20;stroke-linecap:round;stroke-linejoin:round;stroke-miterlimit:10;stroke-dasharray:none;stroke-opacity:1" id="path3569" fill="none" stroke="#00cde5" stroke-width="20" stroke-linecap="round" stroke-linejoin="round" stroke-miterlimit="10" stroke-dasharray="none" stroke-opacity="" data-original="#000000" class=""></path></g><g id="g3571" transform="translate(367.4883,153.7988)"><path d="m 0,0 h 28.004 c 9.91,0 18.008,-8.107 18.008,-18.028 v -32.031 c 0,-9.892 -8.098,-18 -18.008,-18 H 0 c -18.687,0 -33.977,15.307 -33.977,34.015 C -33.977,-15.307 -18.687,0 0,0 Z" style="stroke-width:20;stroke-linecap:round;stroke-linejoin:round;stroke-miterlimit:10;stroke-dasharray:none;stroke-opacity:1" id="path3573" fill="none" stroke="#00cde5" stroke-width="20" stroke-linecap="round" stroke-linejoin="round" stroke-miterlimit="10" stroke-dasharray="none" stroke-opacity="" data-original="#000000" class=""></path></g><g id="g3575" transform="translate(144.4834,153.7988)"><path d="m 0,0 h -28.004 c -9.882,0 -17.979,-8.107 -17.979,-18.028 v -32.031 c 0,-9.892 8.097,-18 17.979,-18 H 0 c 18.716,0 34.005,15.307 34.005,34.015 C 34.005,-15.307 18.716,0 0,0 Z" style="stroke-width:20;stroke-linecap:round;stroke-linejoin:round;stroke-miterlimit:10;stroke-dasharray:none;stroke-opacity:1" id="path3577" fill="none" stroke="#00cde5" stroke-width="20" stroke-linecap="round" stroke-linejoin="round" stroke-miterlimit="10" stroke-dasharray="none" stroke-opacity="" data-original="#000000" class=""></path></g><g id="g3579" transform="translate(167.8994,95.123)"><path d="M 0,0 88.087,-85.123 176.201,0 m 17.244,58.108 c -2.237,12.331 -7.957,24.095 -17.102,33.563 -21.179,21.996 -56.233,19.048 -78.404,-1.701 -10.135,-9.496 -9.542,-9.496 -19.677,0 C 56.091,110.719 21.037,113.667 -0.17,91.671 -9.315,82.203 -15.007,70.439 -17.272,58.108" style="stroke-width:20;stroke-linecap:round;stroke-linejoin:round;stroke-miterlimit:10;stroke-dasharray:none;stroke-opacity:1" id="path3581" fill="none" stroke="#00cde5" stroke-width="20" stroke-linecap="round" stroke-linejoin="round" stroke-miterlimit="10" stroke-dasharray="none" stroke-opacity="" data-original="#000000" class=""></path></g><g id="g3583" transform="translate(102.7754,147.3926)"><path d="m 0,0 c -0.595,4.337 -0.481,9.694 -0.312,16.725 1.332,59.724 13.733,82.628 84.916,110.945 26.389,10.488 22.085,9.213 25.171,34.922 m 86.729,0 C 199.59,136.883 195.286,138.158 221.675,127.67 292.83,99.353 305.26,76.449 306.591,16.725 306.761,9.779 306.874,4.479 306.308,0.17" style="stroke-width:20;stroke-linecap:round;stroke-linejoin:round;stroke-miterlimit:10;stroke-dasharray:none;stroke-opacity:1" id="path3585" fill="none" stroke="#00cde5" stroke-width="20" stroke-linecap="round" stroke-linejoin="round" stroke-miterlimit="10" stroke-dasharray="none" stroke-opacity="" data-original="#000000" class=""></path></g><g id="g3587" transform="translate(365.7051,347.2598)"><path d="M 0,0 V 0.057" style="stroke-width:20;stroke-linecap:round;stroke-linejoin:round;stroke-miterlimit:10;stroke-dasharray:none;stroke-opacity:1" id="path3589" fill="none" stroke="#00cde5" stroke-width="20" stroke-linecap="round" stroke-linejoin="round" stroke-miterlimit="10" stroke-dasharray="none" stroke-opacity="" data-original="#000000" class=""></path></g></g></g></g></g></svg>